<?xml version="1.0" encoding="UTF-8" standalone="no"?>
<svg
   xml:space="preserve"
   width="221.11481"
   height="221.11481"
   viewBox="0 0 58.503602 58.50386"
   version="1.1"
   id="svg4"
   sodipodi:docname="callithrix-icon.svg"
   inkscape:version="1.2.2 (b0a8486541, 2022-12-01)"
   inkscape:export-filename="callithrix-icon.png"
   inkscape:export-xdpi="27.790001"
   inkscape:export-ydpi="27.790001"
   xmlns:inkscape="http://www.inkscape.org/namespaces/inkscape"
   xmlns:sodipodi="http://sodipodi.sourceforge.net/DTD/sodipodi-0.dtd"
   xmlns="http://www.w3.org/2000/svg"
   xmlns:svg="http://www.w3.org/2000/svg"><defs
     id="defs8"><rect
       x="213.34805"
       y="3.6917453"
       width="326.61337"
       height="126.53541"
       id="rect282" /><rect
       x="-233.79713"
       y="-74.266991"
       width="395.61319"
       height="134.42731"
       id="rect226" /></defs><sodipodi:namedview
     id="namedview6"
     pagecolor="#ffffff"
     bordercolor="#000000"
     borderopacity="0.25"
     inkscape:showpageshadow="2"
     inkscape:pageopacity="0.0"
     inkscape:pagecheckerboard="0"
     inkscape:deskcolor="#d1d1d1"
     showgrid="false"
     inkscape:zoom="2.0292531"
     inkscape:cx="217.32134"
     inkscape:cy="92.644925"
     inkscape:window-width="1920"
     inkscape:window-height="1057"
     inkscape:window-x="0"
     inkscape:window-y="0"
     inkscape:window-maximized="1"
     inkscape:current-layer="svg4" /><g
     aria-label="Callithrix"
     transform="matrix(0.23569569,0,0,0.23569569,-50.756657,19.780508)"
     id="text280"
     style="font-size:85.3333px;font-family:'Gotham Black';-inkscape-font-specification:'Gotham Black, ';white-space:pre;shape-inside:url(#rect282);fill:#ffffff;stroke:#2b0000;stroke-width:5.77547;stroke-dasharray:none"><circle
       style="fill:#ffffff;stroke:#2b0000;stroke-width:5.77547;stroke-dasharray:none"
       id="path425"
       cx="339.45581"
       cy="40.184959"
       r="121.22115" /></g><path
     d="m 13.533454,13.811817 c -0.365,0 -0.735999,0.007 -1.025999,0.022 -0.578,0.03 -0.145,0.055 0.962999,0.055 1.108,0 1.581,-0.024 1.052,-0.055 a 19,19 0 0 0 -0.989,-0.022 m -2.969999,0.163 c -0.6740004,0.022 -0.7130004,0.037 -0.228,0.087 0.321,0.034 0.544,0.127 0.494,0.207 -0.126,0.205 -1.1180004,0.181 -1.1880004,-0.029 -0.04,-0.118 -0.28,-0.136 -0.75,-0.055 -0.38,0.066 -0.603,0.15 -0.496,0.187 0.107,0.037 0.193,0.132 0.193,0.21 0,0.208 -0.428,0.173 -0.5,-0.042 -0.113,-0.338 -1.399,0.323 -2.25,1.158 -0.827,0.81 -1.01,1.196 -0.57,1.196 0.202,0 0.188,0.07 -0.078,0.408 -0.378,0.48 -0.415,0.831 -0.088,0.831 0.338,0 0.314,0.05 -0.62,1.268 -0.544,0.708 -0.853,1.26 -0.853,1.525 0,0.227 -0.14,0.54 -0.31,0.694 -0.444,0.402 -0.382,0.812 0.172,1.15 0.47,0.286 0.475,0.297 0.155,0.468 -0.425,0.228 -0.413,0.559 0.04,1.098 0.368,0.437 0.369,0.437 0.57,0.062 0.11,-0.207 0.346,-0.384 0.523,-0.394 0.272,-0.015 0.28,-0.03 0.044,-0.09 a 0.6,0.6 0 0 0 -0.478,0.093 c -0.15,0.123 -0.295,0.065 -0.57,-0.228 -0.308,-0.328 -0.321,-0.375 -0.078,-0.282 0.221,0.085 0.262,0.062 0.165,-0.095 -0.093,-0.151 -0.06,-0.181 0.125,-0.11 0.139,0.053 0.295,0.028 0.346,-0.054 0.051,-0.083 0.175,-0.105 0.276,-0.049 0.14,0.08 0.14,0.057 10e-4,-0.093 -0.1,-0.108 -0.145,-0.293 -0.1,-0.41 0.046,-0.118 0.005,-0.214 -0.09,-0.214 -0.094,0 -0.171,0.109 -0.171,0.242 0,0.132 -0.073,0.196 -0.161,0.142 -0.088,-0.054 -0.12,-0.25 -0.067,-0.435 0.072,-0.258 0.057,-0.284 -0.063,-0.108 -0.086,0.124 -0.205,0.179 -0.265,0.12 -0.059,-0.06 -0.02,-0.215 0.088,-0.345 0.108,-0.13 0.145,-0.236 0.082,-0.236 -0.063,0 -0.002,-0.172 0.136,-0.382 0.28,-0.429 0.332,-0.771 0.093,-0.624 -0.087,0.054 -0.118,0.163 -0.069,0.242 0.05,0.08 0.015,0.144 -0.075,0.144 -0.09,0 -0.164,-0.182 -0.164,-0.405 0,-0.339 0.055,-0.391 0.333,-0.318 0.402,0.105 1.744,-0.755 1.584,-1.015 -0.06,-0.098 -0.034,-0.125 0.064,-0.065 0.178,0.11 2.587,-1.274 2.452,-1.409 -0.099,-0.099 -1.98,0.776 -2.568,1.195 -0.476,0.339 -0.7,0.404 -0.548,0.16 0.056,-0.091 -0.014,-0.112 -0.172,-0.051 q -0.27,0.104 -0.153,-0.08 c 0.061,-0.1 0.23,-0.183 0.373,-0.184 0.226,-0.002 0.23,-0.023 0.03,-0.152 -0.2,-0.129 -0.13,-0.209 0.159,-0.185 0.044,0.004 0.253,-0.128 0.464,-0.293 0.284,-0.223 0.307,-0.274 0.086,-0.195 -0.241,0.086 -0.277,0.054 -0.191,-0.171 0.085,-0.223 0.045,-0.262 -0.206,-0.197 -0.188,0.05 -0.312,0.006 -0.312,-0.109 0,-0.278 0.697,-0.888 0.856,-0.75 0.074,0.065 0.02,-0.066 -0.12,-0.29 -0.326,-0.522 -0.192,-0.656 0.32,-0.32 0.38,0.248 0.396,0.247 0.298,-0.008 -0.088,-0.229 -0.014,-0.27 0.472,-0.266 0.633,0.005 0.572,0.097 -0.43,0.653 -0.376,0.208 -0.465,0.34 -0.39,0.58 0.09,0.279 0.058,0.296 -0.293,0.163 -0.216,-0.082 -0.428,-0.09 -0.473,-0.018 -0.109,0.175 0.712,0.325 0.975,0.177 0.114,-0.063 0.186,-0.18 0.16,-0.257 -0.18,-0.527 4.1560004,-1.768 6.1770004,-1.768 1.924999,0 2.016999,0.379 0.195,0.797 -1.498,0.344 -2.61,0.802 -1.587,0.653 1.659,-0.24 -1.23,1.82 -5.0660004,3.613 -1.833,0.857 -2.318,1.204 -1.143,0.816 0.325,-0.107 1.438,-0.598 2.472,-1.091 5.3400004,-2.547 6.0839994,-2.52 2.187,0.077 -3.042,2.028 -3.908,2.687 -2.55,1.943 0.494,-0.27 0.925,-0.465 0.958,-0.433 0.092,0.092 -1.948,2.385 -2.088,2.347 -0.069,-0.019 -0.22,0.086 -0.334,0.232 -0.192,0.245 -0.185,0.248 0.091,0.034 0.273,-0.212 0.292,-0.208 0.2,0.039 -0.07,0.187 -0.026,0.27 0.143,0.27 0.179,0 0.225,0.106 0.172,0.388 -0.105,0.546 -0.053,0.5 0.557,-0.503 0.971,-1.6 2.304,-2.804 2.057,-1.86 -0.096,0.368 -2.305,4.671 -2.804,5.462 -0.25,0.396 -0.189,0.366 0.407,-0.201 0.385,-0.367 1.031,-1.223 1.436,-1.902 2.4380004,-4.098 4.7950004,-6.178 8.7669994,-7.733 0.725,-0.284 1.384,-0.575 1.465,-0.647 0.269,-0.24 0.436,-0.136 0.225,0.14 -0.114,0.15 -0.018,0.102 0.213,-0.105 0.475,-0.423 0.538,-0.892 0.18,-1.338 -0.232,-0.29 -0.235,-0.29 -0.077,0.038 0.213,0.44 0.209,0.932 -0.008,1.066 q -0.172,0.108 -0.069,-0.217 c 0.114,-0.359 -0.093,-0.847 -0.592,-1.394 -0.182,-0.198 -0.308,-0.408 -0.28,-0.465 0.026,-0.057 -0.113,-0.2 -0.31,-0.316 -0.327,-0.194 -0.325,-0.184 0.028,0.112 0.513,0.432 0.346,0.417 -0.484,-0.043 -0.737,-0.408 -2.326,-0.864 -3.012,-0.864 -0.701,0 -0.304,-0.186 0.662,-0.31 0.514,-0.066 -0.013,-0.08 -1.234,-0.033 -1.554999,0.06 -2.129999,0.033 -2.129999,-0.098 0,-0.116 -0.287,-0.17 -0.814,-0.153 z m 5.927999,0.004 c -0.852,-0.007 -0.852,-0.007 -0.232,0.28 0.699,0.324 1.162,0.385 1.162,0.155 0,-0.085 -0.227,-0.163 -0.504,-0.173 -0.503,-0.019 -0.503,-0.019 -0.038,-0.137 0.383,-0.097 0.315,-0.119 -0.388,-0.125 m 2.122,0.137 c -0.58,-0.007 -1.018,0.048 -0.973,0.12 0.045,0.074 0.45,0.103 0.9,0.066 1.227,-0.101 1.254,-0.172 0.073,-0.186 m 11.262,0.3 c -0.354,0 -0.367,0.021 -0.145,0.243 0.368,0.368 0.365,0.368 -1.459,0.363 -1.659,-0.005 -1.962,-0.107 -1.475,-0.499 0.087,-0.07 0.02,-0.1 -0.155,-0.069 -0.17,0.031 -0.293,0.137 -0.272,0.236 0.02,0.1 -0.065,0.14 -0.196,0.09 -0.166,-0.064 -0.205,-0.018 -0.137,0.16 0.116,0.303 -0.394,0.35 -0.68,0.064 -0.145,-0.145 -0.187,-0.128 -0.187,0.077 0,0.145 -0.065,0.264 -0.146,0.264 -0.081,0 -0.12,-0.14 -0.086,-0.31 0.062,-0.324 -0.143,-0.425 -0.311,-0.153 a 0.19,0.19 0 0 1 -0.26,0.058 c -0.17,-0.105 -0.43,0.2 -0.434,0.51 -0.001,0.1 0.12,0.208 0.269,0.24 0.205,0.044 0.141,0.127 -0.26,0.34 -0.292,0.154 -1.035,0.743 -1.65,1.309 -1.638,1.502 -2.437,2.207 -2.64,2.327 -0.224,0.406 -0.363,0.779 -0.324,1.016 0.088,0.544 -0.06,0.706 -0.646,0.706 -0.187,0 -0.275,0.147 -0.301,0.504 -0.053,0.72 -0.176,1.045 -0.384,1.004 -0.099,-0.02 -0.204,0.121 -0.233,0.313 -0.029,0.192 -0.13,0.349 -0.223,0.349 -0.094,0 -0.124,0.047 -0.067,0.104 0.057,0.057 -0.005,0.224 -0.139,0.372 -0.154,0.17 -0.185,0.304 -0.084,0.366 0.088,0.054 0.303,-0.183 0.479,-0.527 0.176,-0.344 0.457,-0.713 0.626,-0.818 0.213,-0.134 0.306,-0.362 0.306,-0.75 0,-0.56 0,-0.56 1.279,-0.731 3.789,-0.508 7.86,0.647 7.221,2.05 -0.238,0.523 -0.019,0.73 1.684,1.584 0.616,0.31 1.08,0.628 1.03,0.707 -0.049,0.08 0.05,0.297 0.22,0.482 1.34,1.458 1.114,2.522 -0.82,3.856 -0.653,0.451 -0.767,0.601 -0.727,0.963 a 1.43,1.43 0 0 1 -0.198,0.804 c -0.291,0.445 -0.15,0.809 0.474,1.217 0.413,0.271 0.413,0.271 0.005,0.65 -0.308,0.286 -0.373,0.444 -0.266,0.645 q 0.142,0.267 -0.07,0.65 c -0.118,0.212 -0.216,0.619 -0.22,0.904 -0.004,0.456 -0.293,1.164 -0.672,1.646 -0.07,0.088 -0.26,0.387 -0.424,0.664 -0.175,0.294 -0.424,0.503 -0.602,0.503 -0.166,0 -0.349,0.075 -0.405,0.166 -0.056,0.09 -0.203,0.126 -0.327,0.079 -0.124,-0.047 -0.403,0.03 -0.62,0.172 -0.285,0.187 -0.857,0.278 -2.064,0.327 -4.604,0.19 -7.478,-2.628 -6.528,-6.401 0.098,-0.392 0.13,-0.79 0.07,-0.887 -0.059,-0.096 -0.113,-0.738 -0.12,-1.425 -0.01,-1.08 -0.072,-1.353 -0.447,-1.991 -0.64,-1.088 -0.3,-2.878 0.724,-3.82 0.48,-0.441 0.539,-0.712 0.104,-0.48 -0.418,0.224 -1.069,1.107 -1.153,1.564 -0.038,0.207 -0.083,0.377 -0.1,0.377 -0.038,0 -0.105,0.375 -0.24,1.352 -0.056,0.403 -0.16,0.698 -0.232,0.653 -0.071,-0.044 -0.408,0.062 -0.749,0.236 -0.732,0.373 -0.847,0.389 -0.736,0.098 0.134,-0.349 -0.055,-0.404 -0.494,-0.145 -0.382999,0.226 -0.389999,0.225 -0.098,-0.015 0.17,-0.14 0.293,-0.305 0.272,-0.365 -0.021,-0.06 0.135,-0.11 0.347,-0.11 0.212,0 0.381,-0.07 0.376,-0.155 -0.004,-0.085 -0.126,-0.135 -0.27,-0.111 -0.237,0.039 -0.236,0.023 0.011,-0.173 0.15,-0.118 0.27,-0.287 0.27,-0.375 0,-0.088 0.106,-0.2 0.234,-0.25 0.191,-0.073 0.185,-0.016 -0.034,0.318 -0.213,0.326 -0.221,0.39 -0.039,0.325 0.125,-0.045 0.21,-0.16 0.189,-0.257 -0.022,-0.096 0.03,-0.174 0.116,-0.174 0.085,0 0.155,-0.105 0.155,-0.233 0,-0.127 0.073,-0.232 0.164,-0.232 0.09,0 0.121,-0.07 0.068,-0.155 -0.053,-0.085 -0.022,-0.155 0.069,-0.155 0.09,0 0.15,-0.052 0.132,-0.116 -0.018,-0.064 0.089,-0.343 0.236,-0.62 0.148,-0.277 0.23,-0.503 0.184,-0.503 -0.046,0 0.029,-0.175 0.169,-0.388 0.14,-0.213 0.208,-0.387 0.154,-0.387 -0.054,0 0.016,-0.174 0.155,-0.388 0.14,-0.213 0.21,-0.387 0.155,-0.387 -0.055,0 0.016,-0.175 0.155,-0.388 0.14,-0.213 0.21,-0.387 0.155,-0.387 -0.055,0 0.016,-0.174 0.155,-0.387 0.14,-0.213 0.182,-0.388 0.094,-0.388 -0.088,0 -0.189,0.053 -0.225,0.116 -0.035,0.064 -0.045,0.032 -0.02,-0.072 0.205,-0.851 -0.345,-0.03 -0.88,1.313 -1.334,3.358 -1.61,3.786 -4.210999,6.512 -1.5920004,1.67 -1.8700004,2.049 -1.5040004,2.049 0.09,0 0.1140004,-0.08 0.054,-0.179 -0.069,-0.11 -0.043,-0.137 0.068,-0.068 0.106,0.066 0.18,0.01 0.18,-0.136 0,-0.136 0.103,-0.287 0.23,-0.335 0.128,-0.05 0.187,-0.163 0.131,-0.252 -0.063,-0.102 -0.024,-0.116 0.103,-0.037 0.142,0.088 0.165,0.065 0.077,-0.078 -0.088,-0.143 -0.065,-0.166 0.078,-0.077 0.143,0.088 0.165,0.065 0.077,-0.078 -0.088,-0.143 -0.065,-0.166 0.078,-0.077 0.143,0.088 0.166,0.065 0.077,-0.078 -0.088,-0.143 -0.065,-0.166 0.078,-0.077 q 0.203,0.126 0.09,-0.058 c -0.062,-0.1 -0.051,-0.163 0.026,-0.14 0.076,0.024 0.423,-0.284 0.77,-0.684 0.347,-0.4 0.684,-0.678 0.75,-0.62 0.006,0.006 0.009,0.006 0.014,0.01 -0.127,0.22 -0.46,0.597 -1.07,1.2 -0.72,0.715 -1.274,1.299 -1.23,1.299 0.042,0 -0.044,0.135 -0.193,0.3 -0.3850004,0.425 -0.8570004,0.351 -0.8830004,-0.14 -0.02,-0.375 -0.024,-0.377 -0.09,-0.035 -0.077,0.408 0.214,0.844 0.477,0.714 0.097,-0.048 0.065,0.005 -0.071,0.118 -0.137,0.113 -0.252,0.26 -0.256,0.328 -0.014,0.24 -0.392,1.048 -0.459,0.981 -0.037,-0.037 0.044,-0.283 0.18,-0.547 0.217,-0.42 0.22,-0.48 0.016,-0.48 -0.167,0 -0.214,-0.12 -0.167,-0.426 0.177,-1.143 0.22,-1.906 0.102,-1.833 -0.265,0.164 -0.546,2.388 -0.333,2.644 0.116,0.14 0.13,0.236 0.035,0.236 -0.182,0 -0.166,0.283 0.032,0.6 0.093,0.15 0.068,0.193 -0.082,0.143 -0.119,-0.039 -0.302,-0.24 -0.407,-0.446 -0.177,-0.347 -0.191,-0.351 -0.193,-0.052 -10e-4,0.184 -0.169,0.411 -0.39,0.53 -0.213,0.113 -0.387,0.269 -0.387,0.345 0,0.076 0.052,0.107 0.116,0.07 0.064,-0.037 0.255,-0.01 0.426,0.058 0.27,0.109 0.255,0.125 -0.117,0.135 -0.234,0.006 -0.425,0.085 -0.425,0.175 0,0.09 -0.084,0.113 -0.186,0.05 -0.138,-0.085 -0.14,-0.131 -0.008,-0.175 0.124,-0.042 0.134,-0.176 0.03,-0.447 -0.365,-0.963 -0.072,-3.566 0.654,-5.79 0.37,-1.135 1.348,-3.172 1.467,-3.054 0.042,0.043 -0.176,0.58 -0.485,1.194 -0.31,0.614 -0.538,1.142 -0.507,1.173 0.03,0.03 0.352,-0.54 0.713,-1.268 0.36,-0.728 0.584,-1.28 0.496,-1.225 -0.247,0.152 -0.19,-0.102 0.148,-0.655 0.4840004,-0.793 0.2650004,-0.602 -0.85,0.746 -1.487,1.798 -2.662,4.44 -2.947,6.629 -0.116,0.89 -0.324,0.902 -0.43,0.024 -0.055,-0.45 -0.062,-0.43 -0.048,0.116 0.01,0.362 -0.035,0.659 -0.1,0.659 -0.064,0 -0.129,-0.331 -0.143,-0.736 -0.023,-0.658 -0.033,-0.676 -0.086,-0.165 -0.084,0.795 0.216,1.83 0.53,1.83 0.137,0 0.618,0.349 1.068,0.775 0.487,0.46 0.908,0.739 1.04,0.688 0.138,-0.053 0.255,0.036 0.306,0.233 0.112,0.43 0.335,0.402 0.549,-0.068 0.107,-0.236 0.117,-0.388 0.025,-0.388 -0.084,0 -0.152,0.105 -0.152,0.233 0,0.128 -0.072,0.232 -0.16,0.232 -0.11,0 -0.107,-0.1 0.005,-0.31 0.092,-0.17 0.267,-0.31 0.39,-0.31 0.273,0 0.149,0.873 -0.178,1.252 a 0.9,0.9 0 0 0 -0.2,0.542 c 0.007,0.164 0.048,0.211 0.091,0.105 a 0.34,0.34 0 0 1 0.298,-0.194 c 0.25,0 0.3,0.551 0.064,0.697 -0.085,0.053 -0.155,0.01 -0.155,-0.094 0,-0.105 -0.038,-0.151 -0.085,-0.104 -0.047,0.047 -0.112,0.564 -0.144,1.15 -0.042,0.768 -0.022,0.92 0.069,0.548 0.069,-0.283 0.09,-0.649 0.047,-0.813 -0.043,-0.165 -0.002,-0.3 0.09,-0.3 0.104,0 0.16,0.382 0.15,1.019 -0.01,0.56 -0.067,0.937 -0.128,0.84 -0.063,-0.103 -0.153,0.035 -0.211,0.327 -0.062,0.311 -0.034,0.547 0.072,0.613 0.096,0.059 0.129,0.25 0.073,0.424 -0.055,0.174 -0.03,0.358 0.054,0.411 0.085,0.052 0.118,0.19 0.073,0.307 -0.044,0.117 -0.006,0.259 0.086,0.315 0.091,0.057 0.208,-0.006 0.26,-0.139 0.05,-0.133 0.194,-0.242 0.319,-0.242 0.159,0 0.198,-0.104 0.132,-0.349 -0.076,-0.283 -0.047,-0.268 0.15,0.077 0.134,0.235 0.3760004,0.427 0.5390004,0.427 0.204,0 0.454,0.297 0.808,0.962 0.72,1.353 1.984999,2.657 3.611999,3.727 1.48,0.973 1.793,1.211 1.163,0.887 -0.91,-0.47 -2.31,-1.494 -3.137999,-2.299 -0.49,-0.476 -0.892,-0.79 -0.892,-0.698 0,0.289 1.475999,1.563 2.818999,2.435 2.826,1.834 6.324,3.096 6.324,2.28 0,-0.687 3.71,-0.754 4.933,-0.088 0.815,0.443 0.815,0.443 1.234,-0.007 0.399,-0.428 0.4,-0.433 0.022,-0.105 -0.468,0.405 -0.657,0.427 -0.92,0.11 -0.107,-0.128 -0.517,-0.339 -0.91,-0.467 -0.601,-0.197 -0.63,-0.221 -0.175,-0.152 0.299,0.045 0.735,0.223 0.97,0.395 0.479,0.351 0.723,0.283 1.34,-0.377 0.255,-0.273 0.477,-0.373 0.702,-0.317 0.44,0.11 1.51,-0.674 2.14,-1.567 0.53,-0.752 0.893,-0.891 0.89,-0.342 -0.002,0.285 -0.031,0.306 -0.158,0.116 -0.133,-0.198 -0.203,-0.177 -0.47,0.142 -0.22,0.262 -0.26,0.407 -0.135,0.484 0.129,0.08 0.13,0.14 0.007,0.217 -0.285,0.175 -0.194,0.397 0.162,0.397 0.33,0 1.777,-1.014 2.175,-1.522 0.239,-0.306 0.2,-0.28 -1.109,0.74 -0.806,0.627 -1.163,0.65 -0.78,0.052 0.164,-0.255 0.171,-0.256 0.094,-0.006 -0.13,0.416 0.018,0.34 1.189,-0.605 0.95,-0.768 1.122,-0.854 1.386,-0.689 0.244,0.153 0.38,0.141 0.714,-0.062 0.373,-0.225 0.368,-0.211 -0.051,0.145 -0.534,0.454 -0.698,0.492 -0.698,0.164 0,-0.26 -0.394,-0.317 -0.542,-0.077 -0.053,0.085 0.013,0.155 0.146,0.155 0.133,0 0.241,0.105 0.241,0.232 0,0.128 0.06,0.233 0.134,0.233 0.205,0 1.343,-0.949 1.305,-1.088 -0.019,-0.068 0.415,-0.452 0.964,-0.856 0.55,-0.403 1.106,-0.897 1.238,-1.098 0.132,-0.201 0.303,-0.348 0.38,-0.327 0.077,0.021 0.251,-0.102 0.386,-0.273 0.24,-0.306 0.248,-0.304 0.597,0.117 0.81,0.975 1.16,-0.361 0.444,-1.698 -0.258,-0.484 -0.25,-0.497 0.557,-0.852 1.09,-0.48 2.325,-1.371 3.362,-2.43 1.017,-1.038 1.02,-1.09 0.074,-1.217 -0.656,-0.088 -0.656,-0.088 0.066,-0.455 0.906,-0.46 0.91,-0.727 0.012,-1.124 -0.39,-0.173 -1.2,-0.786 -1.803,-1.363 -0.602,-0.578 -1.02,-0.906 -0.929,-0.73 0.171,0.328 1.147,1.27 1.969,1.898 0.255,0.196 0.325,0.289 0.155,0.207 -0.976,-0.467 -4.016,-3.977 -3.643,-4.207 0.094,-0.058 0,-0.247 -0.23,-0.464 -0.214,-0.2 -0.387,-0.44 -0.384,-0.532 0.003,-0.092 0.11,-0.027 0.24,0.143 0.128,0.17 0.3,0.31 0.382,0.31 0.081,0 0.142,0.062 0.135,0.138 -0.008,0.075 0.08,0.197 0.193,0.269 q 0.2,0.128 0.028,0.133 c -0.24,0.003 -0.108,0.455 0.271,0.932 0.308,0.388 0.308,0.388 0.226,-0.232 -0.082,-0.62 -0.081,-0.62 0.247,-0.233 0.181,0.213 0.395,0.369 0.475,0.346 0.08,-0.023 0.101,0.028 0.047,0.115 -0.054,0.087 -0.012,0.16 0.092,0.16 0.105,0 0.144,0.045 0.088,0.102 -0.057,0.056 -0.242,-0.025 -0.413,-0.18 -0.171,-0.154 -0.311,-0.223 -0.311,-0.153 0,0.206 0.495,0.695 0.704,0.695 0.104,0 0.306,0.177 0.447,0.393 0.141,0.216 0.316,0.355 0.388,0.31 0.072,-0.045 0.246,0.093 0.385,0.306 0.266,0.406 0.702,0.522 0.723,0.192 0.01,-0.154 0.028,-0.154 0.09,10e-4 0.043,0.107 0.13,0.162 0.194,0.123 0.064,-0.039 0.117,0.03 0.117,0.152 0,0.168 -0.051,0.181 -0.207,0.052 -0.152,-0.127 -0.207,-0.125 -0.207,0.007 0,0.098 0.122,0.223 0.271,0.278 0.149,0.055 0.327,0.192 0.395,0.305 0.068,0.113 0.218,0.206 0.333,0.206 0.114,0 0.25,0.109 0.3,0.242 0.052,0.133 0.156,0.203 0.233,0.156 0.077,-0.047 0.182,0.022 0.233,0.155 0.05,0.132 0.163,0.198 0.249,0.145 0.086,-0.053 0.156,-0.023 0.156,0.068 0,0.09 0.104,0.163 0.232,0.163 0.128,0 0.233,0.074 0.233,0.165 0,0.091 0.084,0.11 0.193,0.043 0.33,-0.207 0.597,-0.192 0.685,0.036 0.046,0.121 0.157,0.174 0.247,0.12 0.094,-0.06 0.116,-0.027 0.053,0.076 -0.079,0.126 -0.224,0.102 -0.513,-0.087 -0.274,-0.18 -0.382,-0.2 -0.337,-0.064 0.037,0.11 0.128,0.188 0.204,0.174 0.076,-0.014 0.199,0.086 0.275,0.221 0.076,0.136 0.236,0.247 0.357,0.247 0.12,0 0.296,0.142 0.389,0.317 0.093,0.174 0.335,0.38 0.536,0.456 0.268,0.102 0.343,0.223 0.283,0.456 -0.046,0.174 -0.138,0.283 -0.205,0.242 -0.067,-0.041 -0.162,0.035 -0.214,0.169 q -0.202,0.527 0.056,0.529 c 0.083,0 0.105,-0.12 0.048,-0.266 -0.09,-0.236 -0.074,-0.24 0.145,-0.039 0.316,0.29 0.288,0.42 -0.195,0.911 -0.395,0.4 -0.395,0.401 0,0.091 0.395,-0.31 0.394,-0.31 0.025,0.11 -0.203,0.23 -0.412,0.413 -0.464,0.407 -0.304,-0.036 -0.49,0.045 -0.407,0.179 0.056,0.09 -0.014,0.111 -0.172,0.05 -0.19,-0.072 -0.231,-0.045 -0.143,0.097 0.09,0.147 0.037,0.17 -0.207,0.093 -0.203,-0.064 -0.33,-0.037 -0.33,0.07 0,0.097 -0.063,0.135 -0.14,0.088 -0.2,-0.123 -0.65,0.073 -0.548,0.238 0.046,0.075 -0.035,0.091 -0.181,0.035 -0.17,-0.065 -0.229,-0.042 -0.163,0.064 0.067,0.108 -0.015,0.137 -0.231,0.08 -0.235,-0.061 -0.3,-0.032 -0.22,0.098 0.083,0.134 0.004,0.158 -0.284,0.086 -0.473,-0.12 -0.708,0.261 -0.394,0.639 0.158,0.191 0.225,0.199 0.339,0.037 0.109,-0.155 0.126,-0.148 0.075,0.031 -0.037,0.128 -0.182,0.212 -0.322,0.187 -0.14,-0.025 -0.255,0.02 -0.255,0.1 0,0.079 -0.114,0.134 -0.253,0.122 -0.142,-0.012 -0.387,0.217 -0.557,0.521 -0.167,0.298 -0.377,0.612 -0.467,0.697 q -0.166,0.16 -0.053,-0.04 c 0.087,-0.154 0.028,-0.157 -0.283,-0.016 -0.215,0.099 -0.355,0.238 -0.311,0.31 0.044,0.071 -0.028,0.088 -0.16,0.038 -0.132,-0.051 -0.24,-0.018 -0.24,0.074 0,0.092 -0.116,0.122 -0.258,0.068 q -0.259,-0.1 -0.147,0.08 0.111,0.18 -0.148,0.081 c -0.205,-0.079 -0.237,-0.034 -0.156,0.221 0.086,0.272 0.05,0.307 -0.239,0.232 -0.234,-0.062 -0.306,-0.033 -0.23,0.09 0.075,0.121 -0.045,0.18 -0.372,0.18 q -0.484,0 -0.373,-0.178 c 0.075,-0.123 -0.018,-0.153 -0.301,-0.1 -0.226,0.044 -0.41,0.019 -0.41,-0.054 0,-0.074 -0.182,-0.134 -0.405,-0.134 -0.301,0 -0.38,0.062 -0.311,0.241 0.058,0.153 0.029,0.202 -0.081,0.133 -0.105,-0.064 -0.145,-0.021 -0.101,0.108 0.04,0.119 -0.038,0.308 -0.174,0.421 -0.191,0.16 -0.194,0.18 -0.014,0.088 0.128,-0.064 -0.011,0.12 -0.31,0.407 -0.298,0.288 -0.653,0.507 -0.79,0.487 -0.136,-0.02 -0.344,0.088 -0.464,0.24 -0.2,0.254 -0.194,0.259 0.06,0.06 0.218,-0.172 0.318,-0.178 0.465,-0.03 0.146,0.147 0.136,0.17 -0.045,0.104 -0.128,-0.046 -0.407,0.06 -0.62,0.237 -0.213,0.176 -0.283,0.27 -0.155,0.21 0.128,-0.06 -0.028,0.112 -0.346,0.383 -0.318,0.271 -0.562,0.576 -0.542,0.678 0.02,0.102 -0.046,0.17 -0.146,0.15 -0.1,-0.019 -0.4,0.17 -0.666,0.418 -0.267,0.25 -0.516,0.457 -0.555,0.46 a 3,3 0 0 1 -0.234,0.009 c -0.09,0 -0.121,0.069 -0.07,0.153 0.055,0.088 -0.007,0.114 -0.145,0.06 -0.142,-0.054 -0.246,-0.006 -0.254,0.119 -0.007,0.115 -0.076,0 -0.152,-0.255 -0.088,-0.293 -0.083,-0.484 0.013,-0.516 0.084,-0.029 0.152,-0.19 0.152,-0.358 0,-0.194 -0.065,-0.265 -0.18,-0.194 q -0.183,0.113 -0.083,-0.146 c 0.133,-0.348 -0.255,-0.338 -0.53,0.013 -0.186,0.237 -0.183,0.252 0.026,0.117 0.132,-0.086 0.107,-0.033 -0.056,0.116 -0.162,0.15 -0.24,0.27 -0.171,0.27 0.069,0 -0.011,0.11 -0.177,0.245 -0.165,0.134 -0.196,0.193 -0.068,0.131 0.128,-0.061 -0.046,0.15 -0.387,0.471 -0.748,0.705 -2.3,2.811 -2.948,0.144 -1.692,2.647 -8.737,1.891 -12.827,-0.095 -0.316,-0.316 -0.574,-0.645 -0.574,-0.73 0,-0.136 -0.636,-0.57 -0.736,-0.501 -0.193,0.13 -0.476999,-0.018 -0.403,-0.21 0.07,-0.183 0.14,-0.196 0.305,-0.059 q 0.216,0.18 0.214,0.011 c 0,-0.09 -0.093,-0.221 -0.206,-0.29 a 0.9,0.9 0 0 1 -0.304,-0.395 c -0.055,-0.149 -0.241999,-0.271 -0.414999,-0.271 -0.173,0 -0.315,-0.074 -0.315,-0.164 0,-0.09 0.07,-0.12 0.155,-0.068 0.086,0.053 0.156,0.022 0.156,-0.069 0,-0.09 -0.14,-0.164 -0.31,-0.164 -0.171,0 -0.31,-0.074 -0.31,-0.164 0,-0.09 0.07,-0.12 0.154,-0.068 0.086,0.053 0.155,0.022 0.155,-0.068 0,-0.09 -0.14,-0.165 -0.31,-0.165 -0.17,0 -0.31,-0.067 -0.31,-0.15 0,-0.083 0.112,-0.107 0.248,-0.054 0.217,0.083 0.222,0.053 0.04,-0.238 -0.113,-0.183 -0.252,-0.332 -0.308,-0.332 -0.056,0 -0.145,-0.175 -0.198,-0.388 -0.066,-0.262 -0.209,-0.391 -0.443,-0.4 -0.19,-0.006 -0.263,-0.045 -0.16,-0.087 0.258,-0.105 0.068,-0.52 -0.241,-0.522 -0.221,-0.002 -0.224,-0.023 -0.022,-0.153 0.203,-0.132 0.202,-0.15 -0.013,-0.152 -0.37,-0.004 -0.472,0.173 -0.257,0.439 0.153,0.19 0.153,0.214 0,0.122 -0.291,-0.175 -0.8340004,-0.256 -0.7450004,-0.11 0.043,0.069 0.294,0.17 0.5570004,0.222 0.266,0.053 0.436,0.165 0.382,0.252 -0.083,0.134 0.116,0.193 0.484,0.144 0.124,-0.017 0.362,0.348 0.362,0.555 0,0.085 -0.068,0.05 -0.15,-0.077 -0.083,-0.128 -0.152,-0.172 -0.153,-0.097 -0.001,0.075 -0.118,0.039 -0.26,-0.078 -0.234,-0.193 -0.24,-0.18 -0.072,0.136 q 0.245,0.459 0.833,0.367 c 0.158,-0.025 0.146,0.101 -0.044,0.457 -0.126,0.236 -0.11,0.3 0.078,0.3 0.13,0 0.237,0.073 0.237,0.164 0,0.09 -0.08,0.114 -0.178,0.053 -0.111,-0.069 -0.137,-0.043 -0.069,0.068 0.061,0.099 0.211,0.18 0.334,0.18 0.123,0 0.223,0.073 0.223,0.163 0,0.09 -0.083,0.113 -0.185,0.05 -0.102,-0.063 -0.028,0.107 0.165,0.378 0.193,0.271 0.451,0.493 0.573,0.493 0.122,0 0.222,0.074 0.222,0.164 0,0.09 -0.087,0.113 -0.193,0.051 -0.106,-0.062 -0.063,0.037 0.098,0.22 0.16,0.183 0.333999,0.307 0.386999,0.277 0.25,-0.146 0.783,0.218 0.687,0.47 -0.064,0.165 -0.04,0.226 0.062,0.162 0.09,-0.055 0.253,0.006 0.362,0.137 0.17,0.207 0.142,0.229 -0.219,0.164 -0.237,-0.043 -0.377,-0.014 -0.326,0.07 0.05,0.08 0.19,0.145 0.314,0.145 4.314,2.148 15.176,8.09 25.562,-3.547 2.054,-1.874 4.886,-3.472 8.018,-4.524 1.479,-0.497 1.502,-0.512 1.064,-0.696 -1.294,-0.544 0.294,-1.304 2.725,-1.304 1.13,0 1.13,0 1.132,-0.504 0.007,-1.513 0.55,-2.294 1.28,-1.842 0.847,0.523 1.594,-0.482 1.444,-1.944 -0.1,-0.967 -0.087,-1.02 0.343,-1.413 0.445,-0.408 0.446,-0.408 -0.42,-0.774 -1.471,-0.62 -1.482,-0.621 -1.192,-0.061 0.32,0.62 0.325,1.27 0.009,1.27 -0.174,0 -0.23,0.137 -0.205,0.503 0.116,1.686 0.017,2.023 -0.564,1.928 -0.457,-0.074 -0.542,-0.043 -0.542,0.201 0,0.385 -0.417,0.785 -0.702,0.676 -0.175,-0.067 -0.228,0.043 -0.228,0.471 0,0.307 -0.018,0.564 -0.039,0.569 -0.842,0.21 -1.388,0.124 -1.99,-0.313 -0.809,-0.585 -0.878,-0.586 -0.793,-0.007 0.144,0.981 -0.78,0.6 -1.375,-0.568 -0.372,-0.73 -0.371,-0.786 0.01,-0.442 0.168,0.153 0.275,0.327 0.237,0.388 -0.084,0.135 0.496,0.777 0.702,0.777 0.22,0 0.18,-0.418 -0.088,-0.937 -0.214,-0.413 -0.213,-0.457 0.01,-0.457 0.152,0 0.203,0.073 0.133,0.193 -0.061,0.107 -0.054,0.142 0.016,0.078 0.07,-0.064 0.365,0.066 0.655,0.287 0.29,0.221 0.644,0.421 0.788,0.446 0.144,0.024 0.243,0.127 0.22,0.229 -0.063,0.272 0.622,0.13 0.713,-0.149 0.068,-0.206 0.045,-0.206 -0.206,0 -0.252,0.207 -0.274,0.207 -0.204,0 q 0.08,-0.231 0.558,-0.185 c 0.466,0.046 0.478,0.03 0.47,-0.588 -0.01,-0.76 0.066,-0.872 0.354,-0.518 0.185,0.228 0.185,0.247 -10e-4,0.135 q -0.221,-0.135 -0.108,0.048 c 0.23,0.37 0.567,0.197 0.481,-0.248 -0.071,-0.367 -0.06,-0.383 0.077,-0.116 0.135,0.262 0.146,0.241 0.072,-0.135 -0.076,-0.384 -0.05,-0.43 0.191,-0.332 0.338,0.14 0.967,0.272 0.733,0.155 -0.092,-0.045 -0.146,-0.308 -0.12,-0.583 0.039,-0.42 0.027,-0.44 -0.07,-0.124 -0.065,0.207 -0.22,0.404 -0.346,0.438 -0.195,0.053 -0.195,0.039 0.004,-0.102 0.128,-0.09 0.161,-0.166 0.074,-0.167 -0.088,0 -0.315,0.106 -0.504,0.24 -0.407,0.284 -0.451,0.197 -0.084,-0.17 0.243,-0.244 0.241,-0.256 -0.038,-0.199 -0.216,0.045 -0.291,0.178 -0.27,0.479 0.027,0.405 0.017,0.41 -0.343,0.174 -0.525,-0.344 -0.702,-0.16 -0.595,0.62 0.128,0.933 -0.455,1.072 -1.674,0.4 -0.881,-0.486 -1.454,-0.584 -1.568,-0.268 -0.048,0.132 -0.214,0.063 -0.517,-0.213 -1.16,-1.056 -1.948,-1.544 -2.182,-1.349 -0.187,0.155 -0.22,0.144 -0.177,-0.057 0.035,-0.16 -0.386,-0.56 -1.212,-1.154 -3.546,-2.541 -7.366,-6.09 -7.007,-6.505 0.171,-0.198 0.236,-0.513 0.204,-0.988 -0.025,-0.383 -0.012,-0.615 0.03,-0.513 0.054,0.13 0.156,0.106 0.345,-0.078 0.238,-0.233 0.242,-0.28 0.03,-0.441 -0.305,-0.232 -0.541,-0.09 -0.311,0.187 0.14,0.169 0.117,0.202 -0.11,0.158 -0.235,-0.045 -0.282,0.042 -0.273,0.51 0.012,0.603 -0.21,1.262 -0.423,1.262 -0.072,0 -0.13,-0.07 -0.13,-0.155 0,-0.085 0.065,-0.155 0.144,-0.155 0.08,0 0.118,-0.295 0.085,-0.656 -0.045,-0.497 0.014,-0.735 0.245,-0.982 0.169,-0.179 0.287,-0.486 0.265,-0.682 -0.023,-0.198 0.055,-0.392 0.175,-0.434 0.157,-0.056 0.194,0.014 0.133,0.248 -0.047,0.179 0.005,0.4 0.116,0.492 0.16,0.133 0.196,0.041 0.178,-0.443 -0.013,-0.336 -0.072,-0.582 -0.13,-0.546 -0.223,0.135 -0.58,-0.602 -0.429,-0.886 0.097,-0.18 0.093,-0.31 -0.01,-0.375 -0.088,-0.054 -0.144,-0.04 -0.125,0.03 0.019,0.07 -0.021,0.29 -0.088,0.487 -0.091,0.268 -0.05,0.416 0.162,0.577 0.157,0.119 0.207,0.218 0.111,0.22 -0.443,0.013 -0.656,-1.431 -0.297,-2.003 0.226,-0.358 0.22,-1.995 -0.009,-2.083 -0.126,-0.048 -0.175,0.033 -0.137,0.227 0.066,0.343 -0.201,0.412 -0.327,0.083 -0.046,-0.12 -0.218,-0.252 -0.383,-0.295 -0.164,-0.043 -0.299,-0.182 -0.299,-0.309 0,-0.254 0.411,-0.47 0.634,-0.332 0.217,0.134 0.167,0.327 -0.085,0.327 -0.124,0 -0.183,-0.069 -0.131,-0.153 0.057,-0.092 0.014,-0.103 -0.108,-0.028 -0.158,0.097 -0.14,0.17 0.083,0.333 0.33,0.242 0.586,0.003 0.453,-0.423 -0.048,-0.157 0.068,-0.311 0.325,-0.428 0.443,-0.202 0.688,-0.124 0.688,0.217 0,0.322 -0.307,0.276 -0.325,-0.048 q -0.015,-0.27 -0.14,0.117 c -0.068,0.213 -0.13,0.3 -0.139,0.193 -0.008,-0.106 -0.079,-0.193 -0.156,-0.193 -0.254,0 -0.002,0.554 0.266,0.585 0.962,0.11 1.164,0.326 0.742,0.792 -0.136,0.151 -0.205,0.318 -0.153,0.37 0.053,0.053 -0.12,0.357 -0.383,0.677 -0.263,0.319 -0.455,0.603 -0.427,0.631 0.095,0.095 0.56,-0.142 0.492,-0.25 -0.099,-0.16 0.189,-0.566 0.313,-0.442 0.059,0.059 -0.011,0.287 -0.156,0.509 -0.163,0.248 -0.212,0.473 -0.13,0.586 0.075,0.1 0.129,0.37 0.12,0.598 -0.013,0.36 0.023,0.394 0.278,0.258 1.675,-0.897 10.711,0.268 11.745,1.514 0.346,0.417 0.006,0.403 -1.903,-0.076 -3.124,-0.784 -5.671,-1.057 -8.13,-0.873 -1.675,0.126 -1.708,0.373 -0.054,0.402 1.712,0.03 2.431,0.443 1.085,0.623 -0.384,0.05 -0.593,0.104 -0.465,0.117 3.915,0.414 6.73,1.352 7.986,2.663 0.676,0.706 0.39,0.692 -1.346,-0.063 -2.569,-1.118 -5.482,-1.837 -7.232,-1.786 -0.57,0.017 -0.57,0.016 0.127,0.17 0.383,0.085 0.748,0.242 0.81,0.35 0.18,0.316 1.47,0.622 1.726,0.41 0.792,-0.657 9.822,3.508 9.33,4.304 -0.175,0.283 0.784,0.968 1.207,0.862 0.611,-0.154 0.2,-1.186 -0.767,-1.923 -0.163,-0.124 -0.105,-0.016 0.13,0.241 0.591,0.65 0.535,0.846 -0.078,0.27 -0.277,-0.26 -0.905,-0.77 -1.395,-1.133 -1.584,-1.175 -0.732,-1.272 1.182,-0.135 1.12,0.666 2.098,0.866 2.235,0.458 0.055,-0.164 -0.028,-0.19 -0.349,-0.11 -0.258,0.065 -0.384,0.047 -0.327,-0.045 0.05,-0.083 0.011,-0.2 -0.089,-0.262 -0.113,-0.07 -0.14,-0.046 -0.07,0.066 0.16,0.259 -0.109,0.22 -0.46,-0.066 -0.257,-0.21 -0.26,-0.232 -0.03,-0.16 0.374,0.118 0.34,-0.011 -0.057,-0.224 -0.231,-0.125 -0.297,-0.126 -0.223,-0.006 0.19,0.309 -0.129,0.17 -1.685,-0.732 -2.028,-1.176 -2.216,-1.663 -0.37,-0.961 1.08,0.41 1.104,0.302 0.055,-0.246 -1.835,-0.96 -0.559,-1.07 1.347,-0.117 1.277,0.639 1.222,0.64 1.114,-0.038 -0.07,-0.437 -0.044,-0.533 0.117,-0.441 0.114,0.064 -0.02,-0.123 -0.297,-0.417 -0.566,-0.6 -0.631,-0.783 -0.233,-0.655 0.229,0.074 0.235,0.061 0.039,-0.08 -0.568,-0.409 -0.854,-0.193 -0.388,0.293 0.675,0.704 0.253,0.552 -0.542,-0.195 -0.913,-0.858 -0.472,-0.985 1.014,-0.29 0.55,0.258 1,0.398 1,0.312 0,-0.085 0.07,-0.112 0.156,-0.06 0.259,0.16 0.183,0.587 -0.086,0.484 -0.138,-0.053 -0.2,-0.027 -0.146,0.06 0.168,0.272 0.542,0.164 0.542,-0.156 0,-0.193 0.102,-0.31 0.27,-0.308 0.235,0.002 0.24,0.026 0.04,0.17 -0.197,0.141 -0.19,0.153 0.038,0.08 0.15,-0.048 0.271,-0.02 0.271,0.063 0,0.082 -0.087,0.152 -0.194,0.155 -0.106,0.003 -0.066,0.078 0.09,0.169 0.155,0.09 0.31,0.138 0.342,0.105 0.094,-0.094 -0.578,-1.829 -0.708,-1.829 -0.064,0 -0.059,-0.26 0.013,-0.576 0.071,-0.318 0.1,-0.608 0.061,-0.646 -0.037,-0.038 -0.069,0.012 -0.069,0.112 0,0.1 -0.124,0.18 -0.277,0.18 -0.166,0 -0.286,0.125 -0.3,0.31 -0.029,0.382 0.218,0.412 0.316,0.039 0.053,-0.204 0.075,-0.185 0.089,0.078 0.01,0.191 -0.07,0.35 -0.176,0.352 -0.107,0.002 -0.02,0.142 0.194,0.312 0.319,0.254 0.332,0.292 0.077,0.215 -0.26,-0.08 -0.248,-0.042 0.077,0.232 0.246,0.207 0.289,0.291 0.116,0.23 -0.168,-0.06 -0.27,-0.02 -0.27,0.106 0,0.111 -0.26,-0.039 -0.575,-0.332 -0.316,-0.294 -0.482,-0.412 -0.368,-0.263 0.269,0.355 0.087,0.345 -0.43,-0.023 -0.226,-0.161 -0.917,-0.52 -1.534,-0.795 -1.31,-0.586 -1.401,-0.768 -0.387,-0.778 0.837,-0.008 0.074,-0.53 -1.58,-1.08 -0.9,-0.3 -1.109,-0.617 -0.406,-0.617 0.54,0 2.262,0.453 3.168,0.833 0.702,0.295 0.768,0.304 0.638,0.094 -0.527,-0.852 -6.305,-2.008 -10.07,-2.014 -1.478,-0.003 -2.123,-0.177 -1.455,-0.393 0.873,-0.283 4.664,-0.11 7.032,0.321 3.482,0.634 4.02,0.641 3.332,0.047 -0.43,-0.372 -0.47,-0.448 -0.194,-0.366 0.192,0.057 0.35,0.04 0.35,-0.04 0,-0.078 -0.576,-0.148 -1.28,-0.154 -1.278,-0.01 -1.278,-0.01 -0.307,0.207 1.001,0.224 1.67,0.502 1.535,0.638 -0.043,0.043 -0.215,0.004 -0.382,-0.085 -0.167,-0.089 -1.271,-0.308 -2.453,-0.485 -2.7,-0.406 -2.843,-0.444 -2.46,-0.658 0.3,-0.168 3.34,-0.046 4.525,0.181 0.631,0.121 1.115,-0.341 0.998,-0.954 -0.01,-0.052 0.038,-0.088 0.102,-0.103 -1.275,-0.91 -5.51,-1.514 -9.034,-1.114 -1.274,0.145 -2.442,-0.473 -1.546,-0.816 0.199,-0.077 0.207,-0.037 0.052,0.254 -0.167,0.313 -0.16,0.325 0.074,0.133 0.141,-0.117 0.257,-0.309 0.257,-0.426 0,-0.224 -0.335,-0.292 -0.521,-0.106 -0.06,0.06 -0.428,0.09 -0.818,0.065 -0.555,-0.034 -0.683,0.002 -0.59,0.163 0.07,0.122 0.062,0.153 -0.021,0.077 a 0.5,0.5 0 0 1 -0.142,-0.31 c 0,-0.1 -0.14,-0.183 -0.31,-0.186 -0.17,-0.003 -0.4,-0.061 -0.51,-0.13 -0.11,-0.067 -0.29,-0.048 -0.402,0.043 -0.11,0.092 -0.258,0.116 -0.328,0.053 -0.07,-0.064 -0.076,-0.028 -0.015,0.079 0.061,0.106 0.038,0.193 -0.052,0.193 -0.256,0 -0.193,-0.276 0.107,-0.469 0.238,-0.153 0.24,-0.165 0.01,-0.094 -0.144,0.044 -0.284,0.021 -0.31,-0.051 -0.027,-0.073 -0.189,-0.156 -0.36,-0.185 -0.17,-0.03 -0.35,-0.109 -0.4,-0.177 -0.05,-0.068 -0.243,-0.136 -0.427,-0.15 -0.184,-0.014 -0.334,-0.08 -0.334,-0.146 0,-0.067 -0.066,-0.123 -0.146,-0.123 -0.08,0 -0.12,0.14 -0.087,0.31 0.033,0.17 -0.013,0.31 -0.103,0.31 -0.09,0 -0.126,-0.093 -0.083,-0.207 a 0.55,0.55 0 0 0 -0.058,-0.427 c -0.098,-0.154 -0.14,-0.162 -0.141,-0.025 -10e-4,0.107 -0.076,0.194 -0.166,0.194 -0.09,0 -0.124,-0.065 -0.075,-0.144 0.049,-0.08 0.018,-0.188 -0.069,-0.241 -0.088,-0.055 -0.157,0.054 -0.157,0.25 0,0.34 -0.006,0.341 -0.22,0.05 -0.162,-0.223 -0.172,-0.33 -0.038,-0.415 0.109,-0.07 0.116,-0.116 0.018,-0.117 -0.09,-10e-4 -0.24,0.073 -0.332,0.166 -0.121,0.121 -0.197,0.121 -0.272,0 -0.057,-0.093 -0.019,-0.168 0.086,-0.168 0.104,0 0.148,-0.042 0.097,-0.093 -0.216,-0.217 -0.437,0.122 -0.238,0.364 0.169,0.204 0.164,0.23 -0.03,0.164 -0.129,-0.043 -0.228,-0.229 -0.221,-0.412 0.007,-0.183 -0.046,-0.333 -0.116,-0.333 -0.07,0 -0.13,0.087 -0.134,0.193 -0.002,0.114 -0.095,0.075 -0.222,-0.093 -0.12,-0.157 -0.287,-0.243 -0.372,-0.19 -0.085,0.053 -0.2,0.021 -0.255,-0.069 -0.056,-0.09 -0.235,-0.122 -0.399,-0.07 -0.166,0.053 -0.296,0.021 -0.296,-0.071 a 0.165,0.165 0 0 0 -0.165,-0.165 c -0.09,0 -0.12,0.07 -0.068,0.155 0.155,0.25 -0.176,0.177 -0.396,-0.088 -0.125,-0.151 -0.333,-0.209 -0.551,-0.154 -0.193,0.048 -0.394,0.018 -0.447,-0.067 -0.053,-0.085 -0.272,-0.156 -0.486,-0.156 z m 21.762,4.971 c 0.054,0.039 0.09,0.08 0.133,0.119 -0.004,-0.08 -0.033,-0.132 -0.091,-0.132 -0.018,0 -0.027,0.01 -0.042,0.013 m 0.133,0.119 a 0.5,0.5 0 0 1 -0.027,0.184 5.3,5.3 0 0 0 -0.15,0.891 c -0.028,0.316 -0.017,0.452 0.024,0.302 0.082,-0.3 0.375,-0.219 0.302,0.084 -0.025,0.104 -0.016,0.136 0.02,0.073 0.107,-0.193 0.343,-0.13 0.292,0.077 -0.026,0.107 -0.018,0.141 0.018,0.078 0.13,-0.235 0.336,-0.108 0.252,0.155 -0.065,0.202 -0.05,0.219 0.06,0.064 0.142,-0.197 0.365,0.067 0.41,0.484 0.008,0.067 0.114,0.184 0.237,0.26 0.193,0.119 0.193,0.172 0,0.41 -0.199,0.243 -0.193,0.262 0.048,0.172 0.261,-0.098 0.393,0.104 0.155,0.237 -0.064,0.036 -0.034,0.046 0.065,0.023 0.1,-0.023 0.218,0.054 0.263,0.172 0.057,0.149 10e-4,0.187 -0.18,0.124 -0.246,-0.085 -0.245,-0.072 0.004,0.192 0.395,0.42 0.523,0.146 0.225,-0.48 -0.317,-0.664 -0.327,-0.845 -0.045,-0.845 0.687,0 0.365,-0.668 -0.448,-0.928 -1.326,-0.424 -1.466,-0.552 -1.293,-1.18 0.053,-0.19 -0.042,-0.374 -0.232,-0.55 z m -32.12,0.16 c 0.046,-0.083 0.1,-0.168 0.152,-0.253 -0.124,0.13 -0.211,0.232 -0.211,0.269 0,0.014 0.023,0.006 0.06,-0.016 m 0.152,-0.253 c 0.3,-0.313 0.885,-0.828 1.461,-1.27 0.367,-0.281 0.633,-0.544 0.593,-0.585 -0.318,-0.318 -1.413,0.814 -2.054,1.855 m 0.488,-4.97 c -0.065,0.014 -0.078,0.099 -0.077,0.242 0.002,0.232 0.024,0.237 0.152,0.039 0.12,-0.185 0.152,-0.153 0.155,0.155 0.004,0.281 0.042,0.329 0.14,0.174 0.075,-0.118 0.214,-0.165 0.31,-0.106 0.097,0.06 0.135,0.173 0.087,0.251 -0.1,0.162 0.602,0.92 0.85,0.92 0.09,0 0.163,0.108 0.163,0.239 0,0.19 0.062,0.204 0.314,0.069 0.173,-0.093 0.277,-0.23 0.23,-0.304 -0.046,-0.076 -0.002,-0.187 0.097,-0.249 0.11,-0.067 0.14,-0.045 0.078,0.056 a 0.2,0.2 0 0 0 0.067,0.274 c 0.109,0.067 -0.046,0.339 -0.423,0.742 -0.547,0.583 -0.53,0.575 0.215,-0.099 0.84,-0.76 0.946,-0.916 0.686,-1.003 -0.084,-0.028 -0.186,0.074 -0.226,0.228 -0.04,0.154 -0.066,0.087 -0.057,-0.15 0.011,-0.29 0.084,-0.403 0.223,-0.35 0.131,0.05 0.166,0.01 0.096,-0.112 -0.064,-0.112 -0.05,-0.138 0.031,-0.064 a 0.47,0.47 0 0 1 0.141,0.298 c 0,0.092 0.078,0.193 0.172,0.224 0.103,0.035 0.165,-0.131 0.155,-0.413 -0.014,-0.392 -0.25,-0.722 -0.25,-0.348 0,0.067 -0.155,0.134 -0.346,0.148 -0.191,0.014 -0.37,0.099 -0.4,0.189 -0.03,0.09 -0.118,0.123 -0.196,0.075 -0.078,-0.048 -0.142,-0.016 -0.142,0.072 0,0.24 -0.454,0.023 -1.331,-0.635 -0.558,-0.418 -0.807,-0.587 -0.914,-0.563 z m -8.023999,0.004 c 0.401,-0.004 0.64,0.03 0.588,0.115 -0.046,0.075 0.004,0.168 0.11,0.207 0.244999,0.09 -0.046,0.15 -2.826,0.583 -1.2360004,0.193 -2.4560004,0.385 -2.7110004,0.427 -0.557,0.091 -0.335,-0.295 0.381,-0.665 0.59,-0.305 3.2530004,-0.656 4.4580004,-0.667 m 16.002999,0.139 c -0.21,0 -0.422,0.009 -0.582,0.025 -0.32,0.033 -0.057,0.06 0.582,0.06 0.639,0 0.9,-0.027 0.58,-0.06 a 6,6 0 0 0 -0.58,-0.025 m 1.896,0.004 q 0.034,0.006 0.101,0.112 c 0.086,0.136 0.264,0.173 0.501,0.106 0.299,-0.085 0.324,-0.07 0.136,0.074 -0.195,0.15 -0.18,0.167 0.09,0.11 a 0.88,0.88 0 0 1 0.61,0.14 c 0.324,0.237 0.154,0.254 -0.636,0.065 -0.609,-0.145 -0.84,-0.289 -0.836,-0.521 q 0,-0.093 0.034,-0.086 m -22.6999994,0.135 c 0.015,0 0.021,0.04 0.026,0.118 0.011,0.18 -1.267,1.194 -1.51,1.2 -0.258,0.006 -0.505,0.281 -0.43,0.478 0.046,0.12 0.016,0.217 -0.067,0.217 -0.257,0 -0.165,-0.403 0.16,-0.697 0.17,-0.154 0.31,-0.23 0.31,-0.167 0,0.062 0.18,-0.102 0.401,-0.364 0.221,-0.263 0.465,-0.438 0.543,-0.39 0.077,0.048 0.14,0.01 0.14,-0.086 0,-0.096 0.064,-0.134 0.142,-0.086 0.078,0.048 0.178,0 0.22,-0.107 q 0.046,-0.117 0.066,-0.116 m 4.9590004,1.112 c -1.063,0.027 -1.078,0.032 -0.272,0.094 0.636,0.048 0.774,0.097 0.543,0.192 -0.374,0.155 -0.017,0.192 0.502999,0.052 0.714,-0.19 0.313,-0.366 -0.773999,-0.338 m 9.178999,0.316 c -0.51,0.071 -2.43,1.605 -3.403,2.832 -1.137,1.434 -1.785,2.665 -1.551,2.947 0.212,0.256 0.535,0.318 0.385,0.075 -0.053,-0.086 -0.022,-0.155 0.068,-0.155 0.09,0 0.156,-0.053 0.147,-0.117 -0.038,-0.263 0.22,-0.813 0.384,-0.818 0.096,-0.003 0.052,-0.1 -0.1,-0.214 -0.244,-0.186 -0.248,-0.22 -0.031,-0.303 0.141,-0.055 0.205,-0.03 0.15,0.059 -0.052,0.084 -0.02,0.153 0.07,0.153 0.09,0 0.164,-0.104 0.164,-0.232 0,-0.128 0.07,-0.233 0.155,-0.233 0.085,0 0.155,-0.104 0.155,-0.232 0,-0.128 -0.087,-0.234 -0.194,-0.235 q -0.194,-0.003 0.039,-0.153 c 0.128,-0.082 0.171,-0.151 0.097,-0.152 -0.178,-0.003 0.21,-0.467 0.39,-0.467 0.077,0 0.019,0.185 -0.13,0.41 -0.215,0.33 -0.224,0.397 -0.042,0.337 0.125,-0.042 0.23,-0.14 0.231,-0.218 0.006,-0.206 1.572,-1.77 1.773,-1.77 0.094,0 0.21,-0.103 0.26,-0.23 0.048,-0.128 0.146,-0.196 0.217,-0.153 0.071,0.043 0.192,-0.032 0.269,-0.169 0.077,-0.137 0.185,-0.245 0.24,-0.24 0.215,0.02 0.57,-0.177 0.57,-0.318 0,-0.08 -0.07,-0.104 -0.154,-0.052 -0.088,0.054 -0.114,-0.008 -0.06,-0.146 0.061,-0.161 0.019,-0.223 -0.099,-0.206 m -0.316,0.336 q 0.03,0.006 0.05,0.035 c 0.048,0.078 -0.147,0.297 -0.435,0.485 -0.362,0.238 -0.555,0.289 -0.63,0.167 -0.063,-0.101 -0.04,-0.134 0.053,-0.075 0.09,0.055 0.207,-0.014 0.26,-0.153 0.054,-0.14 0.141,-0.21 0.195,-0.157 0.053,0.054 0.18,-0.017 0.282,-0.156 0.077,-0.105 0.165,-0.159 0.225,-0.146 m -11.5599994,0.473 q 0.016,-0.022 -0.21,0.027 c -0.578,0.126 -3.86,1.666 -3.867,1.815 -0.003,0.071 0.046,0.104 0.11,0.073 0.064,-0.03 0.814,-0.404 1.666,-0.828 0.852,-0.424 1.759,-0.854 2.014,-0.957 q 0.269,-0.108 0.286,-0.13 m 10.2959994,0.448 q 0.026,0 0.027,0.032 c 0.003,0.089 -0.304,0.464 -0.681,0.835 -0.413,0.405 -0.672,0.573 -0.65,0.419 0.042,-0.283 0.35,-0.64 0.552,-0.64 0.071,0 0.275,-0.175 0.452,-0.388 0.133,-0.16 0.249,-0.257 0.3,-0.258 m -9.051999,0.163 a 1.8,1.8 0 0 0 -0.513,0.115 c -0.311,0.108 -0.436,0.219 -0.325,0.287 0.114,0.07 -0.111,0.3 -0.6040004,0.616 -0.432,0.277 -0.786,0.536 -0.786,0.575 0,0.088 0.16,-0.006 1.3180004,-0.774 1.127,-0.748 1.076,-0.706 0.98,-0.802 q -0.016,-0.015 -0.07,-0.017 m 28.203999,0.25 c 0.788,0 0.871,0.08 0.97,0.938 0.052,0.455 0.014,0.612 -0.148,0.612 -0.153,0 -0.195,-0.124 -0.14,-0.413 0.069,-0.357 0.04,-0.397 -0.214,-0.295 a 3.5,3.5 0 0 1 -0.914,0.233 c -0.086,0.008 -0.058,0.076 0.061,0.151 a 0.33,0.33 0 0 1 0.121,0.385 c -0.052,0.137 -0.176,0.248 -0.274,0.248 -0.133,0 -0.134,-0.053 -0.003,-0.212 0.133,-0.16 0.121,-0.257 -0.05,-0.399 -0.17,-0.14 -0.189,-0.285 -0.078,-0.576 0.081,-0.213 0.108,-0.452 0.06,-0.53 -0.048,-0.078 0.226,-0.142 0.61,-0.142 m 1.175,0.196 q 0.082,-10e-4 0.204,0.044 c 0.157,0.06 0.218,0.224 0.173,0.469 -0.079,0.437 0.046,0.469 0.524,0.134 0.355,-0.248 0.442,-0.153 0.205,0.223 -0.075,0.117 -0.209,0.168 -0.298,0.113 a 0.19,0.19 0 0 0 -0.259,0.058 c -0.172,0.279 -0.388,0.168 -0.388,-0.199 0,-0.196 -0.083,-0.439 -0.184,-0.54 -0.172,-0.172 -0.14,-0.3 0.023,-0.302 m 4.577,0.269 c 0.982,0 1.627,0.061 1.627,0.155 0,0.093 -0.645,0.155 -1.627,0.155 -0.981,0 -1.627,-0.062 -1.627,-0.155 0,-0.094 0.646,-0.155 1.627,-0.155 m -35.7849994,0.037 c -0.07,-0.07 -1.638,0.711 -1.638,0.816 0,0.04 0.381,-0.114 0.848,-0.343 0.467,-0.229 0.822,-0.441 0.79,-0.473 m 32.9499994,0.124 c 0.19,0 0.435,0.05 0.588,0.149 0.177,0.114 0.115,0.15 -0.262,0.152 -0.272,0.001 -0.538,-0.067 -0.59,-0.152 -0.062,-0.1 0.075,-0.15 0.265,-0.15 m 3.024,0.588 c 0.66,-0.01 1.22,0.015 1.523,0.09 0.904,0.228 0.055,0.455 -2.134,0.572 -2.97,0.16 -3.568,0.158 -3.826,-0.005 -0.432,-0.273 2.455,-0.626 4.437,-0.657 z m -34.214999,0.245 q -0.197,0.018 -0.831,0.255 c -0.4860004,0.182 -0.8500004,0.365 -0.8080004,0.406 0.04,0.04 0.216,-0.001 0.388,-0.093 0.5200004,-0.278 0.7010004,-0.189 0.311,0.154 -0.2,0.177 -0.03,0.1 0.3820004,-0.17 q 0.885,-0.582 0.558,-0.552 m 38.411999,0.118 q 0.233,-0.003 0.542,0.022 c 1.15,0.097 1.447,0.243 1.296,0.637 -0.101,0.264 -0.304,0.277 -1.296,0.08 -1.442,-0.284 -1.623,-0.726 -0.542,-0.739 m -44.1959994,0.174 c 0.546,0.015 0.546,0.015 0.188,0.29 -0.453,0.35 -0.695,0.364 -0.416,0.025 0.192,-0.233 0.18,-0.24 -0.126,-0.077 -0.452,0.241 -0.591,0.227 -0.372,-0.037 0.1,-0.119 0.426,-0.21 0.726,-0.201 m 45.1169994,0.12 c -0.51,0.007 -0.588,0.04 -0.348,0.143 0.432,0.186 1.007,0.186 1.007,0 0,-0.085 -0.296,-0.15 -0.659,-0.144 m -44.0229994,0.207 c 0.01,-0.045 -0.443,0.217 -0.993,0.59 -0.362,0.245 -0.659,0.514 -0.659,0.596 0,0.082 0.258,0.042 0.573,-0.09 0.695,-0.29 0.888,-0.462 0.357,-0.318 -0.421,0.114 -0.39,0.078 0.542,-0.623 0.12,-0.09 0.176,-0.14 0.18,-0.155 m 8.0719994,0.129 c -0.179,0.043 -0.917,0.515 -1.319999,0.857 -0.232,0.198 -0.022,0.103 0.467999,-0.212 0.49,-0.314 0.89,-0.6 0.89,-0.636 q 0,-0.02 -0.038,-0.01 z m -5.9269994,0.287 c -0.085,0 -0.608,0.237 -1.162,0.527 -0.554,0.29 -0.938,0.528 -0.853,0.528 0.086,0 0.609,-0.237 1.163,-0.528 0.554,-0.29 0.937,-0.527 0.852,-0.527 m 29.1329994,0.511 c -0.336,0.05 -0.434,0.2 -0.465,0.713 -0.036,0.605 0.009,0.588 0.38,-0.14 0.245,-0.479 0.262,-0.599 0.085,-0.573 m 15.46,0.421 c 0.01,-0.008 0.06,0.053 0.161,0.177 0.231,0.286 0.503,0.38 0.341,0.118 -0.055,-0.09 0.01,-0.113 0.159,-0.056 0.182,0.07 0.201,0.13 0.068,0.212 -0.14,0.086 -0.136,0.13 0.018,0.182 0.143,0.048 0.124,0.099 -0.068,0.172 q -0.275,0.106 -0.16,-0.075 c 0.076,-0.124 0.02,-0.145 -0.182,-0.068 -0.16,0.062 -0.244,0.065 -0.185,0.006 0.058,-0.058 0.035,-0.254 -0.052,-0.434 q -0.11,-0.224 -0.1,-0.234 z m -39.898,0.206 c -0.141999,-0.024 -0.741999,0.363 -1.216999,0.804 -0.668,0.62 -0.712,0.407 -0.062,-0.3 0.337,-0.366 0.073,-0.124 -0.588,0.538 -0.661,0.662 -1.2010004,1.283 -1.2010004,1.378 0,0.095 0.4430004,-0.217 0.9860004,-0.693 1.052,-0.923 1.477,-1.14 0.865,-0.439 -0.205,0.234 -0.008,0.08 0.438,-0.343 0.446,-0.423 0.809999,-0.832 0.809999,-0.909 q 0,-0.03 -0.03,-0.036 m 8.594,0.11 a 9,9 0 0 0 -1.357,0.134 c -0.775,0.13 -0.775,0.13 -0.046,0.102 0.4,-0.015 0.67,0.032 0.598,0.104 -0.072,0.072 -0.549,0.107 -1.059,0.077 -0.926,-0.053 -0.926,-0.053 -0.917,0.567 0.008,0.512 -0.043,0.619 -0.29,0.62 -0.177,0 -0.301,0.107 -0.303,0.26 0,0.143 -0.064,0.318 -0.14,0.388 -0.08,0.073 -0.092,0.044 -0.028,-0.067 0.061,-0.106 0.074,-0.194 0.028,-0.194 -0.045,0 -0.198,0.227 -0.34,0.504 -0.141,0.277 -0.498,0.773 -0.793,1.102 -0.783,0.873 -1.003,1.5 -0.868,2.468 0.063,0.444 0.095,0.902 0.072,1.017 -0.023,0.115 0.032,0.164 0.122,0.108 0.103,-0.063 0.126,-0.002 0.062,0.165 q -0.104,0.269 0.077,0.155 0.181,-0.113 0.078,0.155 c -0.071,0.184 -0.045,0.23 0.085,0.15 0.138,-0.085 0.16,-0.003 0.081,0.308 -0.06,0.238 -0.045,0.386 0.033,0.337 0.076,-0.047 0.147,0.308 0.158,0.79 0.01,0.482 0.05,1.21 0.09,1.618 0.044,0.47 0.019,0.669 -0.07,0.542 -0.092,-0.128 -0.108,-0.043 -0.045,0.24 0.062,0.286 0.04,0.405 -0.066,0.34 -0.106,-0.065 -0.16,0.303 -0.16,1.081 0,0.778 0.054,1.146 0.16,1.08 0.106,-0.064 0.125,0.048 0.055,0.325 -0.08,0.318 -0.058,0.394 0.088,0.304 0.144,-0.09 0.166,-0.03 0.084,0.228 q -0.113,0.352 0.059,0.244 c 0.1,-0.062 0.137,-0.02 0.09,0.102 -0.102,0.268 0.513,0.934 0.736,0.796 0.093,-0.057 0.128,-0.037 0.077,0.046 -0.113,0.182 0.76,0.726 0.964,0.6 0.08,-0.048 0.195,-0.006 0.257,0.093 0.07,0.114 0.045,0.14 -0.067,0.071 -0.098,-0.06 -0.18,-0.073 -0.18,-0.028 0,0.19 0.932,0.545 1.179,0.45 0.192,-0.073 0.233,-0.046 0.145,0.096 -0.092,0.148 -0.035,0.17 0.226,0.087 0.225,-0.071 0.314,-0.054 0.25,0.05 -0.054,0.087 0.021,0.182 0.168,0.21 0.613,0.119 3.291,0.061 3.108,-0.066 -0.116,-0.08 0.017,-0.093 0.33,-0.032 0.45,0.09 0.576,0.042 0.902,-0.339 0.208,-0.243 0.339,-0.363 0.29,-0.265 -0.134,0.271 0.328,0.377 0.539,0.123 a 0.7,0.7 0 0 1 0.478,-0.223 c 0.324,0 0.952,-0.895 0.838,-1.196 a 0.256,0.256 0 0 1 0.102,-0.295 c 0.104,-0.065 0.128,-0.036 0.061,0.072 -0.06,0.098 -0.074,0.18 -0.03,0.18 0.045,0 0.161,-0.149 0.258,-0.33 0.121,-0.226 0.123,-0.295 0.007,-0.224 -0.105,0.065 -0.134,0.014 -0.077,-0.135 0.05,-0.132 0.16,-0.198 0.243,-0.147 0.095,0.059 0.113,-0.186 0.05,-0.66 -0.073,-0.548 -0.056,-0.689 0.063,-0.52 0.09,0.128 0.166,0.163 0.168,0.078 0.002,-0.085 0.05,-0.322 0.105,-0.528 0.058,-0.217 0.039,-0.335 -0.046,-0.283 -0.207,0.128 -0.148,-0.633 0.066,-0.847 0.134,-0.134 0.131,-0.239 -0.012,-0.422 -0.168,-0.216 -0.158,-0.22 0.085,-0.028 0.262,0.205 0.262,0.232 0.006,0.542 -0.235,0.285 -0.222,0.283 0.108,-0.022 0.372,-0.344 0.05,-0.885 -0.53,-0.89 -0.078,0 -0.15,-0.19 -0.16,-0.42 -0.01,-0.23 0.012,-0.386 0.05,-0.349 0.172,0.172 0.484,-0.57 0.393,-0.933 -0.054,-0.217 -0.039,-0.485 0.034,-0.594 0.074,-0.11 0.012,-0.066 -0.137,0.096 -0.15,0.163 -0.271,0.23 -0.271,0.148 0,-0.205 0.547,-0.682 0.656,-0.573 0.265,0.265 1.517,-0.79 2.053,-1.73 0.325,-0.569 0.079,-1.287 -0.665,-1.942 -0.417,-0.368 -0.417,-0.367 -0.03,0.098 0.387,0.465 0.388,0.464 -0.021,0.105 -0.26,-0.228 -0.381,-0.465 -0.333,-0.648 0.08,-0.306 -1.06,-1.031 -1.345,-0.856 -0.077,0.047 -0.19,0.004 -0.251,-0.095 q -0.113,-0.182 0.09,-0.056 0.207,0.128 0.086,-0.064 a 0.286,0.286 0 0 0 -0.332,-0.107 c -0.118,0.045 -0.198,-0.002 -0.178,-0.106 0.02,-0.104 -0.079,-0.19 -0.22,-0.19 -0.345,-0.003 -0.907,-0.528 -0.895,-0.836 0.007,-0.178 0.046,-0.159 0.138,0.068 0.07,0.174 0.257,0.416 0.416,0.54 0.28,0.217 0.28,0.214 -10e-4,-0.116 -0.205,-0.24 -0.26,-0.46 -0.186,-0.75 0.104,-0.416 -0.236,-0.996 -0.583,-0.996 -0.087,0 -0.006,0.161 0.18,0.358 0.488,0.52 0.413,0.625 -0.098,0.135 -0.238,-0.229 -0.401,-0.48 -0.362,-0.558 0.039,-0.078 -0.039,-0.1 -0.174,-0.048 -0.141,0.054 -0.335,-0.018 -0.452,-0.168 -0.177,-0.226 -0.172,-0.24 0.035,-0.107 0.131,0.085 0.105,0.032 -0.06,-0.12 -0.217,-0.197 -0.454,-0.25 -0.86,-0.19 -0.424,0.061 -0.485,0.046 -0.25,-0.065 0.207,-0.098 -0.254,-0.126 -1.395,-0.085 -1.091,0.04 -1.537,0.015 -1.24,-0.069 0.332,-0.094 0.258,-0.142 -0.037,-0.145 m -18.0149994,0.002 c 0.115,-0.038 0.094,0.108 -0.059,0.403 -0.132,0.254 -0.196,0.506 -0.142,0.56 0.053,0.053 0.049,0.097 -0.01,0.097 -0.21,0 -0.298,-0.498 -0.109,-0.615 0.105,-0.065 0.18,-0.178 0.166,-0.251 -0.014,-0.073 0.056,-0.16 0.154,-0.194 m 47.7389994,0.39 a 3,3 0 0 0 -0.26,0.022 c -0.544,0.064 -0.544,0.064 0.201,0.42 0.88,0.423 1.007,0.453 0.6,0.145 -0.166,-0.125 -0.366,-0.227 -0.446,-0.227 -0.08,0 -0.069,-0.09 0.022,-0.2 0.1,-0.12 0.08,-0.166 -0.117,-0.16 m -37.824,0.36 c -0.087,0 -0.418,0.253 -0.735999,0.562 -0.58,0.562 -0.58,0.562 0.018,0.068 0.979999,-0.81 0.852999,-0.388 -0.218,0.73 -0.999,1.042 -0.999,1.042 0.047,0.04 q 1.457999,-1.4 0.888999,-1.4 m -6.5679994,0.604 c -0.079,-0.017 -0.244,0.058 -0.49,0.248 -0.292,0.226 -0.292,0.23 -0.004,0.129 0.306,-0.108 0.283,-0.004 -0.127,0.577 -0.093,0.132 0.022,0.03 0.257,-0.227 0.383,-0.42 0.494,-0.7 0.364,-0.727 m 43.4509994,0.016 c -0.434,0 -0.388,0.111 0.194,0.466 0.571,0.348 0.795,0.401 0.387,0.092 -0.149,-0.113 -0.27,-0.285 -0.27,-0.382 0,-0.097 -0.14,-0.176 -0.31,-0.176 m -41.8929994,0.304 c -0.1,-0.034 -0.354,0.185 -0.654,0.587 -0.33,0.44 -0.353,0.51 -0.096,0.285 0.387,-0.337 0.429,-0.19 0.106,0.373 -0.122,0.213 -0.221,0.457 -0.22,0.543 0.002,0.167 0.898,-1.474 0.91,-1.666 q 0.006,-0.105 -0.046,-0.122 m 42.9179994,0.563 q -0.04,-0.015 0.1,0.152 c 0.378,0.45 0.34,0.536 -0.195,0.43 -0.58,-0.117 -0.596,0.019 -0.038,0.321 0.466,0.253 0.61,0.299 0.454,0.143 -0.056,-0.055 0.006,-0.18 0.137,-0.275 0.207,-0.151 0.18,-0.225 -0.195,-0.558 a 2,2 0 0 0 -0.263,-0.213 m -10.42,0.412 a 11,11 0 0 0 -0.956,0.014 c -2.34,0.153 -2.292,0.401 0.079,0.406 2.41,0.006 4.726,0.235 6.285,0.623 1.36,0.337 1.791,0.378 1.56,0.147 -0.489,-0.488 -4.486,-1.134 -6.968,-1.19 m 0.097,0.132 c 0.183,0 0.366,0.009 0.504,0.026 0.277,0.034 0.05,0.062 -0.504,0.062 -0.554,0 -0.78,-0.028 -0.503,-0.062 0.138,-0.017 0.32,-0.026 0.503,-0.026 m -36.8469994,0.517 a 0.05,0.05 0 0 0 -0.033,0.008 c -0.086,0.053 -0.155,0.37 -0.155,0.707 0,0.337 0.07,0.61 0.155,0.61 0.085,0 0.154,-0.317 0.154,-0.706 0,-0.377 -0.046,-0.607 -0.12,-0.619 z m 33.2829994,0.242 c -0.002,0.013 0.043,0.074 0.136,0.192 0.117,0.15 0.308,0.272 0.426,0.272 0.307,0 0.263,0.274 -0.058,0.358 q -0.281,0.072 -0.039,0.082 c 0.72,0.034 1.172,-0.386 0.543,-0.505 -0.341,-0.065 -0.725,-0.199 -0.853,-0.297 q -0.15,-0.12 -0.155,-0.102 m -18.949,0.016 q 0.456,-0.032 1.038,0.218 c 0.231,0.1 0.269,0.08 0.17,-0.092 -0.07,-0.121 0.124,0.015 0.43,0.304 0.678,0.64 1.01,1.35 0.753,1.607 -0.098,0.098 -0.178,0.322 -0.178,0.5 0,0.44 -0.426,1.013 -0.745,1 -0.198,-0.008 -0.176,-0.052 0.09,-0.18 0.194,-0.094 0.391,-0.35 0.438,-0.57 a 4,4 0 0 1 0.244,-0.73 c 0.117,-0.243 0.095,-0.45 -0.088,-0.803 -0.26,-0.501 -0.559,-0.777 -0.559,-0.514 0,0.085 0.07,0.198 0.155,0.25 0.218,0.135 0.193,0.741 -0.042,1.063 -0.171,0.235 -0.197,0.185 -0.197,-0.374 0,-1.48 -1.606,-1.883 -2.45,-0.615 -0.902,1.354 0.917,2.958 1.956,1.724 0.243,-0.29 0.448,-0.406 0.576,-0.327 0.144,0.09 0.108,0.151 -0.132,0.227 -0.182,0.058 -0.33,0.201 -0.33,0.318 a 0.4,0.4 0 0 1 -0.166,0.315 c -0.748,0.462 -2.423,-0.06 -2.196,-0.686 0.042,-0.119 0.016,-0.178 -0.059,-0.132 -0.268,0.164 -0.19,-1.03 0.106,-1.61 q 0.428,-0.84 1.186,-0.893 m -13.1669994,0.006 a 0.1,0.1 0 0 0 -0.034,0.035 c -0.123,0.16 -0.348,0.596 -0.5,0.968 -0.305,0.74 -0.45,0.818 -0.761,0.407 -0.183,-0.242 -0.205,-0.212 -0.198,0.271 0.004,0.3 0.045,0.448 0.091,0.332 0.07,-0.178 0.105,-0.178 0.218,0 0.106,0.167 0.134,0.169 0.136,0.008 10e-4,-0.112 0.056,-0.17 0.122,-0.129 0.066,0.04 0.343,-0.426 0.617,-1.037 0.24,-0.534 0.364,-0.883 0.31,-0.855 z m 6.8260004,0.051 c -0.059,-0.009 -0.312,0.198 -0.743,0.623 -0.695,0.684 -1.027,1.18 -0.622,0.93 0.092,-0.056 0.111,0.015 0.049,0.177 -0.068,0.177 -0.127,0.205 -0.168,0.08 -0.05,-0.148 -0.115,-0.15 -0.282,-0.012 -0.257,0.213 -0.28,0.083 -0.057,-0.333 0.089,-0.164 0.12,-0.3 0.069,-0.3 -0.098,0 -0.7530004,1.403 -0.9220004,1.976 -0.16,0.54 -0.017,0.418 0.5200004,-0.446 0.574,-0.923 0.81,-0.924 0.338,-0.001 -0.5750004,1.128 -0.332,0.903 0.313,-0.29 0.346,-0.638 0.833,-1.419 1.083,-1.733 0.347,-0.438 0.482,-0.662 0.422,-0.67 m 32.506999,0.24 c 0.447,-0.004 2.968,0.676 3.14,0.848 0.116,0.116 -0.605,0.068 -1.137,-0.077 -0.255,-0.07 -0.786,-0.17 -1.18,-0.225 -0.928,-0.128 -1.547,-0.537 -0.823,-0.545 m -25.957,0.306 c 0.804,0 1.35,0.747 1.075,1.472 -0.287,0.754 -1.696,0.329 -1.487,-0.45 0.048,-0.178 0.089,-0.482 0.09,-0.674 10e-4,-0.248 0.094,-0.348 0.322,-0.348 m 8.21,0 c 0.32,0 1.526,0.761 1.663,1.05 0.07,0.147 0.083,0.546 0.03,0.887 -0.097,0.62 -0.097,0.62 -0.163,-0.225 -0.065,-0.845 -0.065,-0.846 -0.896,-1.279 -0.457,-0.238 -0.743,-0.433 -0.634,-0.433 m -1.2,0.02 q 0.03,0.006 0.049,0.024 c 0.038,0.038 -0.145,0.158 -0.407,0.266 -0.262,0.108 -0.726,0.484 -1.031,0.835 -0.306,0.35 -0.483,0.497 -0.395,0.327 0.286,-0.552 1.474,-1.498 1.783,-1.451 m -20.0629994,0.193 c -0.09,-0.065 -0.45,0.431 -0.69,0.988 -0.12,0.277 -0.287,0.503 -0.371,0.503 -0.084,0 -0.153,0.179 -0.153,0.397 0,0.218 0.063,0.357 0.14,0.31 0.192,-0.119 1.101,-1.89 1.095,-2.134 q 0,-0.05 -0.021,-0.064 m 20.7899994,0.098 c 1.315,0 2.054,1.956 1.127,2.982 -0.134,0.15 -0.17,0.27 -0.08,0.27 0.092,0 0.347,-0.214 0.567,-0.476 0.22,-0.262 0.401,-0.409 0.401,-0.326 0,0.083 -0.246,0.367 -0.547,0.632 -0.302,0.264 -0.598,0.471 -0.659,0.46 a 31,31 0 0 0 -0.886,-0.12 c -0.903,-0.114 -1.162,-0.246 -1.162,-0.597 0,-0.197 -0.041,-0.213 -0.186,-0.068 -0.31,0.31 -0.45,0.208 -0.166,-0.123 0.247,-0.288 0.273,-0.29 0.405,-0.039 0.776,1.486 2.783,0.396 2.362,-1.282 -0.377,-1.5 -2.487,-1.275 -2.6,0.278 -0.046,0.634 -0.053,0.643 -0.256,0.287 -0.119,-0.208 -0.136,-0.322 -0.039,-0.262 0.094,0.058 0.17,0.036 0.17,-0.05 0,-0.086 -0.07,-0.198 -0.155,-0.25 -0.487,-0.301 0.829,-1.316 1.705,-1.316 m 13.87,0.343 c -1.718,-0.003 -1.548,0.1 0.775,0.473 1.74,0.278 1.782,0.283 1.782,0.198 0,-0.039 -0.436,-0.158 -0.969,-0.266 -0.872,-0.175 -0.922,-0.205 -0.503,-0.299 0.268,-0.06 -0.192,-0.105 -1.085,-0.106 m -13.924,0.154 c 0.611,0.007 1.148,0.425 0.868,0.884 -0.106,0.175 -0.193,0.421 -0.193,0.547 0,0.126 -0.135,0.302 -0.3,0.39 -0.407,0.218 -0.566,0.202 -0.851,-0.083 -0.309,-0.309 -0.315,-0.687 -0.012,-0.687 0.36,0 0.275,-0.46 -0.11,-0.602 -0.343,-0.126 -0.343,-0.126 -0.01,-0.305 a 1.26,1.26 0 0 1 0.608,-0.144 m 12.215,0.586 c -0.62,0 -0.686,0.105 -0.19,0.305 0.488,0.196 0.537,0.19 0.638,-0.072 0.069,-0.18 -0.034,-0.233 -0.448,-0.233 m 6.036,0.087 c -0.02,0.022 0.158,0.13 0.477,0.286 0.426,0.207 0.67,0.388 0.542,0.4 -0.128,0.014 0.047,0.154 0.388,0.312 0.702,0.325 1.072,0.385 0.927,0.151 -0.12,-0.194 -1.713,-1.003 -2.244,-1.14 q -0.08,-0.02 -0.09,-0.009 z m 9.81,0.078 c -0.345,0.01 -0.345,0.01 0.004,0.15 0.191,0.077 0.348,0.181 0.348,0.232 0,0.05 -0.063,0.052 -0.14,0.005 -0.235,-0.145 -0.658,0.093 -0.57,0.32 0.044,0.118 0,0.213 -0.1,0.213 -0.1,0 0.056,0.245 0.345,0.543 0.483,0.498 0.5,0.615 0.078,0.559 -0.085,-0.012 0.003,0.114 0.197,0.28 0.36,0.307 0.342,0.355 -0.197,0.532 -0.294,0.096 -0.295,0.09 -0.03,-0.116 0.162,-0.126 0.216,-0.258 0.127,-0.313 a 0.185,0.185 0 0 0 -0.252,0.065 c -0.055,0.089 -0.153,0.127 -0.218,0.086 -0.066,-0.04 -0.107,0.134 -0.092,0.387 0.015,0.253 -0.056,0.53 -0.159,0.615 -0.291,0.242 -0.194,0.853 0.13,0.826 0.153,-0.012 0.25,0.057 0.218,0.155 -0.032,0.098 -0.283,0.2 -0.559,0.227 q -0.939,0.094 -0.411,0.99 c 0.2,0.338 0.227,0.507 0.1,0.633 -0.094,0.095 -0.167,0.454 -0.16,0.8 0.008,0.492 0.04,0.56 0.144,0.317 0.097,-0.226 0.143,-0.06 0.172,0.62 0.04,0.929 0.04,0.93 0.097,0.12 0.031,-0.444 -0.007,-0.933 -0.085,-1.084 -0.092,-0.18 -0.07,-0.437 0.063,-0.74 0.112,-0.256 0.207,-0.367 0.21,-0.246 0.004,0.12 0.044,0.183 0.089,0.138 0.044,-0.044 0.035,-0.201 -0.022,-0.349 -0.081,-0.212 -0.13,-0.224 -0.233,-0.06 -0.095,0.15 -0.133,0.113 -0.134,-0.13 -0.002,-0.184 -0.09,-0.366 -0.196,-0.404 -0.106,-0.038 -0.151,-0.116 -0.099,-0.173 0.16,-0.174 0.757,-0.24 0.757,-0.085 0,0.08 0.073,0.146 0.162,0.146 0.089,0 0.142,-0.087 0.117,-0.194 -0.024,-0.106 0.025,-0.207 0.11,-0.223 0.084,-0.015 0.139,0.1 0.12,0.257 -0.024,0.2 0.139,0.355 0.542,0.517 0.691,0.277 0.764,0.24 0.438,-0.227 -0.21,-0.298 -0.249,-0.31 -0.249,-0.078 0,0.152 -0.066,0.235 -0.148,0.185 -0.082,-0.05 -0.128,-0.177 -0.103,-0.28 0.025,-0.105 0.016,-0.137 -0.02,-0.073 -0.036,0.064 -0.133,0.116 -0.216,0.116 -0.083,0 -0.106,-0.073 -0.051,-0.162 0.055,-0.089 -0.087,-0.407 -0.316,-0.707 -0.23,-0.3 -0.392,-0.567 -0.363,-0.592 a 4,4 0 0 1 0.404,-0.228 c 0.191,-0.1 0.348,-0.242 0.348,-0.317 0,-0.074 -0.157,-0.103 -0.348,-0.065 -0.192,0.038 -0.087,-0.046 0.232,-0.186 0.72,-0.317 0.744,-0.647 0.1,-1.38 -0.437,-0.498 -0.452,-0.547 -0.164,-0.547 0.406,0 0.544,-0.23 0.424,-0.706 -0.066,-0.265 -0.199,-0.376 -0.44,-0.37 z m -16.314,0.3 c -0.37,0 0.698,0.904 1.635,1.384 2.11,1.083 7.734,5.395 7.639,5.858 -0.018,0.085 0.157,0.322 0.387,0.525 0.42,0.37 0.42,0.369 0.044,-0.058 -0.51,-0.577 -0.183,-0.544 0.375,0.04 0.245,0.255 0.384,0.464 0.309,0.464 -0.075,0 0.1,0.244 0.388,0.542 0.29,0.3 0.56,0.543 0.6,0.543 0.041,0 -0.09,-0.175 -0.29,-0.388 -0.44,-0.47 -0.237,-0.518 0.25,-0.06 0.68,0.639 0.692,0.223 0.03,-1.103 -0.819,-1.642 -0.845,-1.715 -0.433,-1.239 0.372,0.43 0.267,0.16 -0.198,-0.512 -0.166,-0.239 -0.342,-0.395 -0.39,-0.346 -0.11,0.11 -0.963,-0.69 -0.963,-0.904 0,-0.085 0.226,0.049 0.503,0.298 0.277,0.249 0.086,0.012 -0.425,-0.526 -0.895,-0.94 -2.119,-1.962 -1.647,-1.374 0.298,0.373 0.129,0.33 -0.555,-0.137 -1.329,-0.91 -6.393,-3.007 -7.26,-3.007 m -0.32,0.208 c -0.023,-0.005 0.062,0.12 0.233,0.369 0.188,0.274 0.405,0.538 0.483,0.586 0.078,0.048 0.1,0.193 0.05,0.322 -0.05,0.133 0.066,0.401 0.266,0.615 0.196,0.209 0.392,0.38 0.434,0.38 0.043,0 -0.074,-0.162 -0.259,-0.36 -0.426,-0.453 -0.424,-0.568 0.012,-0.58 0.338,-0.008 0.34,-0.014 0.042,-0.193 -0.169,-0.101 -0.546,-0.429 -0.838,-0.727 -0.266,-0.271 -0.399,-0.407 -0.423,-0.412 m 13.01,0.152 c -0.034,0.035 0.104,0.172 0.308,0.306 0.689,0.451 0.926,0.759 0.696,0.904 -0.155,0.099 -0.14,0.13 0.067,0.133 0.314,0.003 0.33,-0.064 0.11,-0.473 -0.181,-0.34 -0.107,-0.371 0.326,-0.14 0.165,0.089 0.3,0.12 0.3,0.07 0,-0.12 -1.724,-0.883 -1.807,-0.8 m -7.31,0.273 c -0.143,0.007 0.37,0.316 1.136,0.686 1.597,0.77 1.518,0.74 1.403,0.554 -0.048,-0.078 -0.002,-0.17 0.103,-0.206 0.228,-0.075 -2.27,-1.053 -2.643,-1.034 m -7.382,0.01 a 0.2,0.2 0 0 1 0.073,0.01 c 0.127,0.038 0.31,0.225 0.406,0.415 0.096,0.19 0.235,0.36 0.31,0.375 0.075,0.015 0.118,0.083 0.097,0.148 -0.022,0.065 0.176,0.249 0.439,0.409 0.263,0.16 0.414,0.33 0.336,0.379 -0.079,0.048 -0.447,-0.224 -0.82,-0.603 -0.373,-0.38 -0.611,-0.693 -0.53,-0.696 0.082,-0.003 0.01,-0.115 -0.16,-0.25 -0.14,-0.11 -0.192,-0.178 -0.151,-0.187 m -14.788,0.186 c 0.247,-0.002 0.445,0.263 0.694,0.764 0.136,0.275 0.721,0.953 1.3,1.507 1.47,1.407 1.602,2.886 0.314,3.52 -0.274,0.134 -0.387,0.315 -0.387,0.62 0,0.407 -0.034,0.428 -0.62,0.386 -0.55,-0.04 -0.693,0.028 -1.233,0.581 -0.884,0.906 -1.14,0.842 -2.005,-0.503 -0.4,-0.62 -0.852,-1.208 -1.006,-1.304 -0.296,-0.184 -0.319,-0.603 -0.103,-1.866 0.163,-0.949 0.86,-1.05 0.86,-0.124 q 0.001,0.74 -0.499,0.286 c -0.281,-0.255 -0.29,-0.242 -0.264,0.348 0.016,0.337 -0.023,0.733 -0.084,0.88 -0.082,0.196 -0.01,0.315 0.271,0.443 0.212,0.096 0.68,0.622 1.043,1.168 0.856,1.293 0.845,1.29 1.63,0.52 0.628,-0.617 0.712,-0.653 1.302,-0.559 0.617,0.099 0.91,-0.176 0.476,-0.445 -0.289,-0.178 -0.157,-0.402 0.366,-0.62 1.233,-0.516 1.143,-1.855 -0.205,-3.042 -0.502,-0.44 -1.066,-1.101 -1.254,-1.467 -0.337,-0.657 -0.724,-0.96 -0.92,-0.726 -0.056,0.067 -0.469,0.627 -0.918,1.245 -0.601,0.826 -0.906,1.119 -1.152,1.106 -0.202,-0.011 -0.242,-0.045 -0.101,-0.085 0.127,-0.037 0.616,-0.593 1.084,-1.235 0.694,-0.95 1.094,-1.395 1.411,-1.398 m -14.6399994,0.146 c -0.154,0.022 -0.469,0.242 -0.867,0.646 -0.466,0.472 -0.797,0.859 -0.735,0.859 0.06,0 0.363,-0.28 0.67,-0.62 0.597,-0.66 0.878,-0.792 0.74,-0.348 -0.078,0.25 -0.07,0.25 0.093,-0.005 0.245,-0.382 0.252,-0.555 0.099,-0.532 z m 43.4229994,0.018 c -0.16,0.005 0.09,0.204 0.752,0.613 0.982,0.606 1.265,0.72 0.682,0.27 -0.27,-0.207 -0.313,-0.304 -0.157,-0.356 0.117,-0.04 -0.128,-0.188 -0.546,-0.33 q -0.587,-0.201 -0.731,-0.197 m -46.2059994,0.072 c -0.014,-0.034 -0.102,0.055 -0.233,0.243 -0.324,0.464 -0.303,0.787 0.043,0.654 0.333,-0.128 0.659,0.162 0.434,0.387 -0.438,0.438 -0.23,0.75 0.501,0.75 0.689,0 0.693,0.004 0.6,0.468 -0.08,0.397 -0.054,0.453 0.171,0.367 0.165,-0.063 0.237,-0.212 0.19,-0.391 -0.042,-0.159 -0.01,-0.288 0.07,-0.288 0.081,0 0.058,-0.096 -0.052,-0.213 -0.11,-0.117 -0.298,-0.175 -0.419,-0.129 -0.14,0.054 -0.18,0.019 -0.108,-0.097 0.072,-0.117 -0.005,-0.181 -0.217,-0.181 -0.266,0 -0.31,-0.064 -0.225,-0.33 0.065,-0.204 0.045,-0.292 -0.05,-0.233 -0.086,0.053 -0.198,-0.012 -0.248,-0.143 -0.05,-0.132 -0.028,-0.2 0.05,-0.152 0.079,0.049 0.191,0.01 0.25,-0.086 0.077,-0.124 0.146,-0.113 0.237,0.035 0.103,0.166 0.168,0.17 0.322,0.017 0.206,-0.207 -0.01,-0.261 -0.778,-0.197 -0.227,0.019 -0.328,-0.032 -0.264,-0.136 0.064,-0.103 0.011,-0.131 -0.139,-0.074 -0.182,0.07 -0.219,0.022 -0.147,-0.195 q 0.02,-0.06 0.012,-0.076 z m 11.5739994,0.084 c 0.002,-0.024 0.063,0.032 0.162,0.154 0.409,0.504 0.741,1.899 0.586,2.46 -0.146,0.53 -0.145,1.131 0.002,1.279 0.049,0.049 -0.008,0.411 -0.127,0.806 -0.119,0.395 -0.16,0.758 -0.09,0.806 0.069,0.048 0.12,0.4 0.112,0.784 -0.008,0.384 0.05,0.83 0.126,0.993 0.112,0.236 0.09,0.275 -0.111,0.198 -0.138,-0.053 -0.248,-0.046 -0.246,0.016 0.009,0.192 0.41,0.653 0.495,0.567 0.044,-0.044 0.118,0.061 0.164,0.235 0.136,0.523 -0.092,0.355 -0.625,-0.46 -0.509,-0.779 -0.695,-1.241 -0.276,-0.687 0.296,0.392 0.295,0.243 -0.006,-0.476 -0.212,-0.508 -0.219,-0.793 -0.05,-2.262 0.221,-1.948 0.084,-2.61 -0.48,-2.308 -0.275,0.147 -0.311,0.119 -0.311,-0.247 0,-0.662 0.34,-1.612 0.576,-1.612 0.122,0 0.174,-0.084 0.118,-0.193 a 0.14,0.14 0 0 1 -0.019,-0.053 m -2.778999,0.277 q 0.03,0.011 0.081,0.043 c 0.042,0.025 0.022,0.096 -0.028,0.19 -0.007,-0.024 -0.014,-0.048 -0.04,-0.093 q -0.101,-0.171 -0.013,-0.14 m 29.139999,0.124 c 0.262,0 2.208,1.043 2.338,1.254 0.146,0.236 -0.284,0.136 -0.948,-0.22 -0.347,-0.185 -0.852,-0.43 -1.124,-0.543 -0.512,-0.215 -0.662,-0.491 -0.267,-0.491 m 2.156,0.2 c -0.109,0.108 1.67,1.198 1.813,1.11 0.074,-0.047 0.328,0.021 0.565,0.15 0.492,0.266 0.507,0.271 0.507,0.169 0,-0.112 -2.81,-1.504 -2.885,-1.43 m 1.307,0.162 q -0.062,-0.011 -0.08,0.005 c -0.043,0.043 0.33,0.287 0.829,0.541 0.978,0.5 1.75,1.048 1.255,0.893 -0.373,-0.118 -0.34,0.011 0.058,0.224 0.23,0.124 0.297,0.125 0.223,0.005 -0.152,-0.245 0.098,-0.21 0.5,0.073 0.192,0.133 0.31,0.303 0.266,0.375 -0.045,0.073 0.146,0.292 0.424,0.487 q 0.501,0.352 0.293,0.09 c -0.117,-0.146 -0.144,-0.265 -0.058,-0.265 0.196,0 0.526,0.389 0.42,0.495 -0.044,0.044 0.044,0.178 0.195,0.296 0.25,0.196 0.256,0.191 0.062,-0.056 -0.117,-0.149 -0.143,-0.27 -0.058,-0.27 0.194,0 0.528,0.388 0.423,0.493 -0.042,0.042 0.08,0.21 0.273,0.373 0.35,0.296 0.35,0.296 0.055,-0.053 -0.365,-0.431 -0.093,-0.467 0.295,-0.039 0.154,0.17 0.222,0.31 0.152,0.31 -0.07,0 0.033,0.172 0.23,0.383 0.198,0.21 0.415,0.349 0.482,0.307 0.067,-0.042 0.165,-0.004 0.219,0.082 0.16,0.26 0.387,0.179 0.28,-0.1 -0.07,-0.182 -0.041,-0.222 0.098,-0.136 0.665,0.41 -0.376,-0.752 -1.384,-1.547 -0.387,-0.305 -0.387,-0.306 -0.092,0.043 0.163,0.192 0.245,0.349 0.183,0.349 -0.187,0 -1.19,-0.813 -1.106,-0.896 0.043,-0.043 0.184,0.01 0.314,0.118 0.13,0.108 0.236,0.157 0.236,0.11 0,-0.047 -0.226,-0.245 -0.503,-0.44 q -0.502,-0.35 -0.291,-0.087 c 0.322,0.402 0.101,0.322 -0.835,-0.3 q -1.304,-0.864 -0.579,-0.613 c 0.219,0.076 0.211,0.047 -0.039,-0.151 -0.457,-0.361 -1.52,-0.89 -1.401,-0.697 0.148,0.24 -0.003,0.208 -0.712,-0.154 -0.26,-0.132 -0.503,-0.227 -0.627,-0.248 z m -5.837,0.108 c -0.157,-0.024 -0.16,0.067 0.03,0.279 0.142,0.156 0.222,0.32 0.179,0.362 -0.044,0.044 0.078,0.212 0.27,0.375 0.35,0.296 0.35,0.296 0.055,-0.053 -0.163,-0.191 -0.225,-0.348 -0.14,-0.348 0.199,0 0.693,0.542 0.59,0.646 -0.044,0.043 0.078,0.212 0.27,0.375 0.35,0.296 0.35,0.296 0.055,-0.053 -0.162,-0.191 -0.245,-0.348 -0.185,-0.348 0.223,0 2.576,1.882 2.503,2.001 -0.042,0.068 0.113,0.29 0.345,0.494 0.421,0.371 0.421,0.372 0.046,-0.055 -0.207,-0.234 -0.306,-0.426 -0.22,-0.426 0.2,0 0.855,0.696 0.752,0.799 -0.043,0.043 0.113,0.247 0.347,0.453 0.426,0.375 0.426,0.375 0.05,-0.051 -0.206,-0.234 -0.305,-0.426 -0.22,-0.426 0.202,0 0.856,0.696 0.752,0.8 -0.044,0.044 0.077,0.213 0.27,0.376 0.35,0.296 0.349,0.296 0.054,-0.052 -0.444,-0.524 -0.177,-0.423 0.77,0.293 0.717,0.54 1.12,1.085 0.49,0.658 -0.113,-0.076 -0.027,0.018 0.19,0.21 0.469,0.413 0.592,0.45 0.297,0.088 -0.188,-0.232 -0.178,-0.249 0.098,-0.147 1.036,0.382 -4.956,-4.801 -6.755,-5.843 -0.425,-0.246 -0.736,-0.384 -0.893,-0.407 m 10.903,0.378 c -0.047,0.007 0.063,0.124 0.282,0.357 0.275,0.292 0.579,0.457 0.814,0.444 0.5,-0.029 0.497,-0.033 -0.439,-0.502 -0.406,-0.204 -0.61,-0.306 -0.657,-0.299 m -5.682,0.702 c 0.528,0 3.744,3.002 3.744,3.495 0,0.123 -0.053,0.217 -0.116,0.209 -0.165,-0.022 -3.771,-3.704 -3.628,-3.704 m -2.408,0.207 q -0.046,-0.017 -0.047,0.003 c 0,0.047 0.68,0.64 1.511,1.317 a 40,40 0 0 1 2.67,2.41 c 0.636,0.647 1.192,1.177 1.233,1.177 0.041,0 -0.268,-0.349 -0.687,-0.775 -0.767,-0.778 -0.83,-1.077 -0.089,-0.426 0.396,0.349 0.396,0.348 0.1,-0.002 -0.52,-0.617 -4.23,-3.527 -4.69,-3.703 z m 3.912,0.11 c 0.09,-0.005 0.435,0.271 0.768,0.612 0.332,0.341 0.573,0.62 0.534,0.62 -0.157,-0.001 -1.452,-1.227 -1.302,-1.233 m -31.666,0.006 q 0.028,-0.008 0.115,0.131 c 0.12,0.19 0.178,0.191 0.396,0.01 0.34,-0.282 0.537,0.013 0.54,0.814 10e-4,0.32 -0.032,0.581 -0.075,0.581 -0.043,0 -0.078,-0.275 -0.078,-0.61 0,-0.684 -0.178,-0.896 -0.464,-0.552 -0.225,0.271 -0.466,0.166 -0.463,-0.203 q 0,-0.163 0.029,-0.17 m 7.55,0.986 a 0.73,0.73 0 0 1 0.402,0.156 c 0.303,0.232 0.302,0.24 -0.08,0.544 -0.474,0.377 -0.753,0.396 -0.882,0.062 -0.169,-0.44 0.164,-0.785 0.56,-0.762 m 30.1,0.013 c 0.091,-0.053 0.44,0.362 0.44,0.567 0,0.257 -0.892,0.115 -1.164,-0.186 -0.277,-0.306 -0.273,-0.31 0.21,-0.213 0.358,0.072 0.49,0.041 0.494,-0.115 q 10e-4,-0.043 0.02,-0.053 m -11.56,0.272 c 0.054,-0.002 0.118,0.06 0.158,0.164 0.053,0.14 0.17,0.21 0.26,0.154 0.09,-0.056 0.117,-0.027 0.059,0.067 -0.057,0.092 0.036,0.212 0.208,0.267 0.172,0.054 0.312,0.164 0.312,0.243 0,0.08 0.079,0.127 0.175,0.106 0.096,-0.021 0.206,0.049 0.245,0.155 q 0.189,0.511 -0.884,-0.418 c -0.384,-0.331 -0.647,-0.653 -0.585,-0.715 a 0.08,0.08 0 0 1 0.051,-0.023 m -33.3169994,0.416 c -0.022,-0.04 -0.039,0.163 -0.04,0.546 0,0.512 0.028,0.74 0.063,0.507 0.035,-0.233 0.036,-0.651 0.002,-0.93 a 0.5,0.5 0 0 0 -0.025,-0.123 m 43.7079994,0.159 c 0.086,0 0.356,0.208 0.6,0.463 0.244,0.255 0.41,0.498 0.367,0.54 -0.043,0.042 -0.312,-0.166 -0.6,-0.463 -0.288,-0.297 -0.453,-0.54 -0.367,-0.54 m -45.5199994,0.475 c 0.093,-0.005 0.23,0.02 0.408,0.089 0.206,0.079 0.216,0.125 0.051,0.23 -0.163,0.103 -0.154,0.131 0.04,0.133 0.136,10e-4 0.374,0.142 0.528,0.312 0.154,0.17 0.224,0.31 0.155,0.31 -0.07,0 0,0.14 0.155,0.31 0.444,0.49 0.184,0.36 -0.31,-0.154 -0.245,-0.256 -0.38,-0.468 -0.3,-0.471 0.08,-0.003 -0.081,-0.105 -0.358,-0.226 -0.533,-0.231 -0.646,-0.52 -0.368,-0.533 m 13.7649994,0.305 c 0.696,-0.005 3.072,0.68 3.226,0.93 0.139,0.224 -0.37,0.162 -1.256,-0.154 a 10.4,10.4 0 0 0 -1.473,-0.394 c -1.012,-0.167 -1.285,-0.376 -0.497,-0.382 m -11.0549994,0.685 c 0.069,0.004 0.125,0.065 0.213,0.186 0.108,0.148 0.196,0.217 0.196,0.155 0,-0.062 0.147,0.024 0.327,0.191 0.18,0.167 0.302,0.364 0.271,0.438 -0.031,0.074 -0.18,0.007 -0.332,-0.149 -0.152,-0.155 -0.337,-0.246 -0.41,-0.2 -0.074,0.045 -0.176,-0.03 -0.228,-0.166 -0.06,-0.155 -0.196,-0.212 -0.365,-0.153 -0.216,0.075 -0.208,0.045 0.038,-0.145 0.14,-0.108 0.221,-0.161 0.29,-0.157 m 35.3179994,0.263 q 0.025,0.006 0.06,0.094 c 0.044,0.107 0.143,0.155 0.222,0.106 0.078,-0.048 0.185,0.02 0.236,0.153 0.051,0.133 0.151,0.205 0.223,0.16 0.072,-0.045 0.207,0.061 0.3,0.234 0.206,0.385 0.211,0.387 -0.502,-0.103 -0.32,-0.22 -0.575,-0.477 -0.569,-0.572 q 0.006,-0.078 0.03,-0.072 m -0.46,0.909 c 0.058,0.009 0.123,0.052 0.175,0.135 0.126,0.205 -0.285,0.487 -1.03,0.708 -0.775,0.228 -0.807,0.432 -0.09,0.567 0.51,0.096 0.51,0.096 0.036,0.116 -0.622,0.027 -1.18,-0.367 -0.842,-0.593 0.127,-0.086 0.344,-0.158 0.48,-0.159 0.532,-0.005 1.243,-0.35 1.16,-0.563 -0.055,-0.146 0.017,-0.226 0.112,-0.211 m -0.047,1.547 c 0.646,0 -1.932,2.248 -3.505,3.055 -1.126,0.578 -1.346,0.864 -0.96,1.25 0.1,0.101 0.15,0.216 0.11,0.256 -0.102,0.103 -0.449,-0.48 -0.449,-0.755 0,-0.125 0.54,-0.507 1.214,-0.858 1.27,-0.66 3.435,-2.39 3.435,-2.743 0,-0.113 0.07,-0.205 0.155,-0.205 m -25.159,1.547 c 0.049,-0.035 0.394,0.092 1.008,0.402 0.627,0.315 1.383,0.663 1.681,0.773 0.343,0.127 0.429,0.201 0.233,0.204 -0.436,0.006 -1.322,-0.329 -2.147,-0.812 -0.575,-0.337 -0.823,-0.533 -0.775,-0.567 m -8.2899994,3.269 c -0.032,-0.003 -0.026,0.045 0.004,0.143 0.04,0.128 0.26,0.323 0.4890004,0.434 0.228,0.112 0.528,0.426 0.667,0.698 0.14,0.272 0.388,0.687 0.553,0.921 0.422,0.6 0.535,0.533 0.13,-0.078 -0.183,-0.277 -0.483,-0.8 -0.667,-1.164 -0.183,-0.363 -0.406,-0.634 -0.495,-0.601 -0.089,0.032 -0.294,-0.054 -0.4550004,-0.192 -0.124,-0.105 -0.194,-0.159 -0.226,-0.161 m 29.2139994,0.063 c 0.015,0.017 0.02,0.18 0.03,0.506 0.023,0.718 -0.107,0.83 -0.408,0.349 -0.238,-0.383 -0.628,-0.4 -0.919,-0.04 -0.198,0.245 -0.202,0.238 -0.05,-0.077 0.2,-0.41 0.653,-0.454 0.953,-0.09 0.19,0.23 0.222,0.202 0.308,-0.272 0.048,-0.262 0.072,-0.392 0.086,-0.376 m -29.4509994,0.164 c -0.033,-0.002 -0.063,0.051 -0.1,0.148 -0.073,0.19 -0.047,0.37 0.068,0.465 0.264,0.218 0.423,0.698 0.232,0.698 -0.088,0 -0.12,0.063 -0.072,0.141 0.048,0.078 0,0.172 -0.107,0.21 -0.107,0.038 0.003,0.07 0.244,0.071 0.241,0.002 0.4730004,-0.088 0.5160004,-0.2 0.043,-0.111 0.178,-0.165 0.3,-0.118 q 0.221,0.086 0.134,-0.142 c -0.053,-0.138 -0.224,-0.2 -0.438,-0.16 -0.3000004,0.058 -0.3810004,-0.03 -0.5550004,-0.603 -0.107,-0.352 -0.167,-0.507 -0.222,-0.51 m 27.9199994,1.215 c -0.058,0.015 -0.193,0.145 -0.349,0.343 -0.208,0.263 -0.765,0.746 -1.238,1.071 -0.473,0.326 -0.86,0.616 -0.86,0.644 0,0.237 0.946,-0.41 1.821,-1.244 0.362,-0.345 0.658,-0.7 0.657,-0.79 q 0,-0.033 -0.03,-0.024 m -7.184,3.943 c -0.028,-0.024 -0.178,0.08 -0.394,0.282 -0.736,0.685 -1.506,1.117 -1.837,1.03 -0.154,-0.04 -0.327,0.003 -0.385,0.096 -0.066,0.106 0.064,0.168 0.355,0.168 0.484,0 1.979,-1.003 2.247,-1.508 q 0.03,-0.056 0.014,-0.068 m -13.858,0.586 c 0,-0.075 1.713,0.642 1.846,0.772 0.036,0.035 0,0.06 -0.077,0.054 -0.219,-0.013 -1.77,-0.738 -1.77,-0.826 m 4.53,0.86 q 0.128,-0.005 0.312,10e-4 c 0.659,0.026 0.658,0.026 0.077,0.087 -0.45,0.047 -0.58,0.128 -0.58,0.361 0,0.325 -0.036,0.333 -0.62,0.146 -0.388,-0.124 -0.388,-0.124 0.038,-0.14 0.269,-0.01 0.426,-0.1 0.426,-0.247 0,-0.131 0.093,-0.193 0.348,-0.207"
     style="fill:#280b0b;stroke-width:0.154963"
     id="path2" /></svg>
